<svg xmlns="http://www.w3.org/2000/svg" xmlns:xlink="http://www.w3.org/1999/xlink" viewBox="0 0 337.26 312.12"><defs><style>.cls-1,.cls-15,.cls-16,.cls-41,.cls-46,.cls-59{fill:none;}.cls-2{fill:#00afb9;}.cls-3{fill:#84af98;}.cls-4{fill:#5f505e;}.cls-5{fill:#a59547;}.cls-6{fill:#927a35;}.cls-7{fill:#776774;}.cls-8{fill:#4c404b;}.cls-9{fill:#f47567;}.cls-10{fill:#ff917b;}.cls-11{fill:#29150f;}.cls-12{fill:#593a2e;}.cls-13{fill:#333;}.cls-14{fill:#fff;}.cls-15,.cls-46{stroke:#29150f;}.cls-15,.cls-16,.cls-41,.cls-46,.cls-59{stroke-linecap:round;stroke-linejoin:round;}.cls-15,.cls-16,.cls-41{stroke-width:0.75px;}.cls-16{stroke:#db4242;}.cls-17{fill:#fca590;}.cls-18{fill:#d8c5bf;}.cls-19{fill:#837984;}.cls-20{fill:#ccb3ac;}.cls-21{fill:#bcaf8e;}.cls-22{fill:#d3cca5;}.cls-23{fill:#e6e6be;}.cls-24{fill:#d28148;}.cls-25{fill:#4361ee;}.cls-26{fill:#59442c;}.cls-27{fill:#2f1a10;}.cls-28{fill:#907b31;}.cls-29{fill:#715a24;}.cls-30{fill:#896867;}.cls-31{fill:#af9590;}.cls-32{fill:#e07127;}.cls-33{fill:#5b432c;}.cls-34{fill:#f8932a;}.cls-35{fill:#7c6a52;}.cls-36{fill:#f9ab4e;}.cls-37{fill:#ccb3ab;}.cls-38{fill:#f79427;}.cls-39{fill:#dbc6bd;}.cls-40{fill:#44331c;}.cls-41{stroke:#2f1a10;}.cls-42{fill:#a39d4f;}.cls-43{fill:#ef8425;}.cls-44{fill:#f79429;}.cls-45{fill:#190b09;}.cls-47{fill:#fca338;}.cls-48{fill:#d68149;}.cls-49{fill:#3d313b;}.cls-50{fill:#4f414d;}.cls-51{fill:#3f3744;}.cls-52{fill:#5f5260;}.cls-53{fill:#ffe19f;}.cls-54{fill:#fcd772;}.cls-55{fill:#f0fcf7;}.cls-56{fill:#2d00f7;}.cls-57{clip-path:url(#clip-path);}.cls-58{fill:#2d1b0f;}.cls-59{stroke:#2d1b0f;}.cls-60{fill:#f3dfc3;}.cls-61{fill:#e5cdb7;}.cls-62{fill:#bcb3a6;}.cls-63{fill:#dbd8cc;}.cls-64{fill:#f2f1e7;}.cls-65{fill:#b99a4c;}.cls-66{fill:#ddd083;}.cls-67{fill:#d1ad93;}.cls-68{fill:#d84848;}</style><clipPath id="clip-path"><rect class="cls-1" x="101.42" y="14.59" width="204.01" height="121.46"/></clipPath></defs><g id="Layer_2" data-name="Layer 2"><g id="OBJECTS"><path class="cls-2" d="M35.37,80a34.66,34.66,0,0,0-4.06,2.36C12,95.37,1.92,120.11.22,142.62q-.27,3.48-.21,7c.43,27.07,16.58,53.9,41.37,64.78s56.94,3.58,72.84-18.32c7.6-10.47,11.28-24.8,5.88-36.56C112.54,143,92.5,138,83.15,123,75,110,81.84,91.4,68.53,81.1,59.2,73.87,45.47,75,35.37,80Z"/><path class="cls-3" d="M127.46,210.21c0,2.67-25.51,4.83-57,4.83s-57-2.16-57-4.83,25.5-4.82,57-4.82S127.46,207.55,127.46,210.21Z"/><polygon class="cls-4" points="36.09 207.81 33.96 207.81 33.96 168.46 29.11 147.6 31.25 147.6 36.09 168.35 36.09 207.81"/><polygon class="cls-4" points="57.37 206.77 55.23 206.77 55.23 168.1 50.39 147.6 52.53 147.6 57.37 168 57.37 206.77"/><rect class="cls-4" x="50.39" y="170.98" width="2.14" height="36.84"/><rect class="cls-4" x="75.88" y="170.98" width="2.14" height="36.84"/><path class="cls-5" d="M47.19,153.23H28.11a8.38,8.38,0,0,1-7.62-6.33l-4.57-19.55c-.78-3.29,1.25-5.95,4.51-5.95H38.8a8.33,8.33,0,0,1,7.52,5.95l5.3,19.55C52.56,150.38,50.59,153.23,47.19,153.23Z"/><path class="cls-6" d="M47.5,153.23H29.7c-3.17,0-6.36-2.85-7.12-6.33l-4.27-19.55c-.72-3.29,1.17-5.95,4.22-5.95H39.67c3,0,6.18,2.66,7,5.95l4.94,19.55C52.52,150.38,50.67,153.23,47.5,153.23Z"/><path class="cls-5" d="M81.06,172.35H34.48a2.73,2.73,0,0,1-2.73-2.73h0a2.72,2.72,0,0,1,2.73-2.72H81.06a2.72,2.72,0,0,1,2.73,2.72h0A2.73,2.73,0,0,1,81.06,172.35Z"/><path class="cls-6" d="M81.06,172.35H38.3a2.73,2.73,0,0,1-2.73-2.73h0a2.72,2.72,0,0,1,2.73-2.72H81.06a2.72,2.72,0,0,1,2.73,2.72h0A2.73,2.73,0,0,1,81.06,172.35Z"/><path class="cls-4" d="M37.6,109.1s-8.71-4.27-9.71,4.52c-.7,6.08,2,29.35,6,30.48s5.95-9.77,5.95-9.77Z"/><path class="cls-7" d="M40.66,131.7s-8-4.07-11.55,2.79c-.27,2.61.89,6.12,2.79,7.39,0,0,6-3.31,8.34-3.31Z"/><path class="cls-8" d="M56.39,116.66l.79-6.82s3.26-1.23,5.64.7,9.41,20,9.41,20l-8.36,8.29Z"/><path class="cls-7" d="M60.75,136.19c0-.31,3.74-10.69,12.89-8.84s5.72,6.39,5.72,6.39l-15,8.14Z"/><path class="cls-4" d="M41.49,109.62s-6.7-1.54-10,.55c-1.48.94,2.5,9.15,4.65,18.37a196.31,196.31,0,0,1,3.7,23.82l27.79-4.19s-6.14-22.76-6.37-31-2.15-7.84-7.43-6.59S41.49,109.62,41.49,109.62Z"/><path class="cls-9" d="M41,109.07s4.34,11.59,9.18,10.4,5.37-11.78,5.37-11.78Z"/><path class="cls-9" d="M62.25,101.94c.69,1.32-.39,3.25-2.41,4.31s-4.21.84-4.91-.48.39-3.25,2.41-4.31S61.56,100.62,62.25,101.94Z"/><path class="cls-10" d="M58.75,102.56c.47,7.48-3.31,13.72-9.14,14.09s-11.51-5.29-12-12.77,3.94-13.3,9.71-14.21C58.79,87.87,58.28,95.07,58.75,102.56Z"/><path class="cls-11" d="M61.1,96c-.82.71-1.46,1.21-1.46,1.21l-.85,6.41c-.29-3-.57-5.84-1.26-7.19,0,0-14.29.83-15.5.94,0,0-.62,5-2.29,7.43H37s-2.59-7.59-2-11.44,2.87-8,4-7.57.59,3.07.59,3.07,1.49-1.25,3.53-2.8h0c3.78-2.86,9.46-6.79,11.18-5.94,2.55,1.26-.17,5.15-.35,5.41.36-.13,8.05-3,9.27-1s-4.05,7.06-4.05,7.06,4.83-1.11,5.42.12C64.92,92.51,62.69,94.65,61.1,96Z"/><path class="cls-12" d="M61.1,96A5.73,5.73,0,0,0,62,93c-.3-1.38-5.58.31-5.58.31s5.28-6,4.45-7.38-9.32,1.75-9.32,1.75,2-4,.46-4.93c-1-.6-5.72,1.65-8.92,3.3,3.78-2.86,9.46-6.79,11.18-5.94,2.55,1.26-.17,5.15-.35,5.41.36-.13,8.05-3,9.27-1s-4.05,7.06-4.05,7.06,4.83-1.11,5.42.12C64.92,92.51,62.69,94.65,61.1,96Z"/><path class="cls-10" d="M40.9,106.38c-.45,1.42-2.58,2-4.75,1.34s-3.58-2.4-3.13-3.82,2.57-2,4.75-1.33S41.34,105,40.9,106.38Z"/><path class="cls-13" d="M46.71,107.69c0,.55-.19,1-.43,1s-.42-.44-.42-1,.19-1,.42-1S46.71,107.14,46.71,107.69Z"/><path class="cls-13" d="M56,106.92c0,.55-.19,1-.43,1s-.42-.45-.42-1,.19-1,.42-1S56,106.37,56,106.92Z"/><path class="cls-14" d="M52.76,111.55s-3.88.87-6-1.07a2.45,2.45,0,0,0,2.22,2.81A3.73,3.73,0,0,0,52.76,111.55Z"/><path class="cls-15" d="M54.57,101.68a2.27,2.27,0,0,1,2.73.37"/><path class="cls-15" d="M47.13,102.2a2.82,2.82,0,0,0-3.21.66"/><path class="cls-16" d="M52.84,107.09a6.61,6.61,0,0,1,.11,2.8"/><path class="cls-17" d="M40,118.36c-.12-.28-2.48-4.22-2.73-7.9s1-7,1.91-6.57,0,5.75,0,5.75.92-5.8,2.15-5.42-.27,7-.27,7,1.33-4.84,2.23-4.66-.49,6.77-.49,6.77.58-4.07,1.72-4-.38,5.16-.38,5.16,2.87,2.85,1.18,6.32Z"/><path class="cls-17" d="M40,118.36s-8.89,19.13-8.25,23c.35,2.15,2.57,3.28,4.41,3.36s4.38-.79,5.52-6c1.4-6.41,3.62-18,3.62-18Z"/><polygon class="cls-18" points="81.05 165.31 56.05 166.9 76.3 154.25 81.05 165.31"/><path class="cls-10" d="M105.41,175.63c.06.56,5.36,7.6,5.36,7.6L105,187.8l-5.36-6.5Z"/><path class="cls-4" d="M107.61,193.74a1.79,1.79,0,0,1-.81-.6c-1.42-1.64-2.16-5.75-2.16-5.75l5.61-4.86s7.24-2.76,10.3-2.55a2.1,2.1,0,0,1,1,.26C123.46,181.53,109.54,194.4,107.61,193.74Z"/><path class="cls-19" d="M107.61,193.74a1.79,1.79,0,0,1-.81-.6c2.42-1.66,9.74-7,13.75-13.16a2.1,2.1,0,0,1,1,.26C123.46,181.53,109.54,194.4,107.61,193.74Z"/><path class="cls-19" d="M111.08,185.42h0a.45.45,0,0,1-.54-.3l0-.18a.55.55,0,0,1,0-.18,6.82,6.82,0,0,1,.12-2.66.44.44,0,0,1,.86.22,5.91,5.91,0,0,0,0,2.58A.44.44,0,0,1,111.08,185.42Z"/><path class="cls-19" d="M112.9,184.71a.44.44,0,0,1-.55-.3h0a5,5,0,0,1,0-2.9.45.45,0,0,1,.86.28,4.11,4.11,0,0,0,0,2.38.44.44,0,0,1-.31.55Z"/><path class="cls-19" d="M114.52,184l-.08,0a.46.46,0,0,1-.49-.4,8.33,8.33,0,0,1,.14-2.49.45.45,0,1,1,.87.19,7.46,7.46,0,0,0-.12,2.21A.44.44,0,0,1,114.52,184Z"/><path class="cls-20" d="M39.84,152.36s2.84,18.1,15.4,14.76,30-11.64,30-11.64L101.46,188l8.55-8.12s-14.86-35.14-20.13-36.63c-7.58-2.14-22.25,4.91-22.25,4.91Z"/><path class="cls-10" d="M99.65,189.39c-.09.57,3.12,8.77,3.12,8.77L96,201l-3.41-7.7Z"/><path class="cls-4" d="M96.9,207.43a1.87,1.87,0,0,1-.62-.79c-.92-2-.53-6.13-.53-6.13l6.71-3.17s7.71-.71,10.61.31a2.08,2.08,0,0,1,.89.53C115.45,199.93,98.59,208.59,96.9,207.43Z"/><path class="cls-19" d="M96.9,207.43a1.87,1.87,0,0,1-.62-.79c2.78-.95,11.26-4.11,16.79-9a2.08,2.08,0,0,1,.89.53C115.45,199.93,98.59,208.59,96.9,207.43Z"/><path class="cls-19" d="M102.48,200.35h0a.46.46,0,0,1-.44-.44v-.19a.33.33,0,0,1,0-.17,6.61,6.61,0,0,1,.82-2.53.44.44,0,0,1,.61-.17.45.45,0,0,1,.17.61,5.81,5.81,0,0,0-.74,2.47A.45.45,0,0,1,102.48,200.35Z"/><path class="cls-19" d="M104.42,200.16a.44.44,0,0,1-.44-.44h0a5,5,0,0,1,.82-2.78.45.45,0,0,1,.62-.12.44.44,0,0,1,.13.61,4.09,4.09,0,0,0-.68,2.29.45.45,0,0,1-.44.45Z"/><path class="cls-19" d="M106.18,199.88h-.08a.46.46,0,0,1-.36-.52,8.23,8.23,0,0,1,.8-2.36.45.45,0,0,1,.79.41,7.44,7.44,0,0,0-.71,2.1A.44.44,0,0,1,106.18,199.88Z"/><path class="cls-18" d="M72.55,161l4.32,4.3,16.45,34.6,9.45-4.46S91.42,152.87,84.5,154.29,72.55,161,72.55,161Z"/><rect class="cls-21" x="44.52" y="143.32" width="47.3" height="1.43"/><rect class="cls-22" x="44.52" y="143.32" width="18.22" height="1.43"/><path class="cls-21" d="M61.49,144.05a.37.37,0,0,1-.37.37.38.38,0,0,1-.37-.37.37.37,0,0,1,.37-.37A.36.36,0,0,1,61.49,144.05Z"/><rect class="cls-21" x="57.23" y="143.84" width="2.73" height="0.46"/><rect class="cls-21" x="52.51" y="143.8" width="2.73" height="0.46"/><rect class="cls-21" x="45.73" y="143.8" width="2.73" height="0.46"/><polygon class="cls-23" points="94.42 143.55 62.42 143.51 69.42 120.76 101.49 120.74 94.42 143.55"/><polygon class="cls-22" points="94.42 143.55 63.28 143.51 70.06 121.5 101.26 121.48 94.42 143.55"/><path class="cls-8" d="M62.42,210.11h0A1.16,1.16,0,0,1,61.26,209v-61.1a1.15,1.15,0,0,1,1.16-1.15h0a1.15,1.15,0,0,1,1.15,1.15V209A1.16,1.16,0,0,1,62.42,210.11Z"/><path class="cls-8" d="M28,210.11h0A1.15,1.15,0,0,1,26.81,209v-61.1A1.14,1.14,0,0,1,28,146.7h0a1.14,1.14,0,0,1,1.15,1.15V209A1.15,1.15,0,0,1,28,210.11Z"/><path class="cls-8" d="M107.14,210.11h0A1.16,1.16,0,0,1,106,209v-61.1a1.15,1.15,0,0,1,1.15-1.15h0a1.15,1.15,0,0,1,1.16,1.15V209A1.16,1.16,0,0,1,107.14,210.11Z"/><rect class="cls-24" x="21.74" y="144.74" width="89.18" height="3.91"/><path class="cls-25" d="M332,161.89a33.91,33.91,0,0,0-11.74-11.36c-14.76-8.76-34.58-9.45-49.27-.15-13.65,8.64-22.5,24.19-37.42,30.41-7.14,3-15.47,3.7-21.37,8.72-8.73,7.42-8.47,21.24-4.17,31.86,8.49,21,30.07,35.56,52.64,37.07S306,249,320,231.23c12.65-16,21-40.81,15.57-61.08A32.06,32.06,0,0,0,332,161.89Z"/><path class="cls-3" d="M320.2,257.19c0,2.87-25.78,5.19-57.57,5.19s-57.56-2.32-57.56-5.19,25.77-5.2,57.56-5.2S320.2,254.32,320.2,257.19Z"/><path class="cls-26" d="M303.41,255.9c0,2-10.93,3.53-24.41,3.53s-24.42-1.58-24.42-3.53a1,1,0,0,1,.35-.66c1.83-2,10.81-4.94,21.86-5.32l1.07,0h2.51c11.54.22,20.87,3.34,22.7,5.35A1,1,0,0,1,303.41,255.9Z"/><path class="cls-27" d="M303.07,255.24c-1.94,1.35-12,2.38-24.07,2.38s-22.13-1-24.07-2.38c1.83-2,10.81-4.94,21.86-5.32l1.07,0h2.51C291.91,250.11,301.24,253.23,303.07,255.24Z"/><rect class="cls-27" x="273.67" y="233.22" width="10.65" height="18.61"/><path class="cls-28" d="M308.68,165.25c1.88.35,21.54,3.46,17.42,31.35-3.73,25.31-27.34,41.62-54.32,42.23-32.21.72-46.15-18.72-38.77-34.82s31-12,35.83-19S279.15,159.74,308.68,165.25Z"/><path class="cls-29" d="M293.39,168.22s23.7-3.59,25.65,9.5-5.81,32.66-17.21,35-12.68,7.82-15.78,12.91-21.25,17.79-40.77,4.86-8.92-35.33,4.53-36.09C266.89,193.48,273.59,184.23,293.39,168.22Z"/><path class="cls-30" d="M270.07,185.07s-6.08-5.84-1.43-12.3l7.54,2.85Z"/><path class="cls-10" d="M292.59,163.36l-1.13,12.14s-7.95,2.59-15.61,4.87c-2.12.64-4.22,1.25-6.11,1.77l-1.52.42a41.13,41.13,0,0,1-5.52,1.21c-4.69.43-4.92-21-4.92-21l5.18,1.64s.9,8.45,2.77,9.05a6.73,6.73,0,0,0,2.91-.73c1.32-.49,3-1.21,4.74-2,5.64-2.55,12.6-6,14.56-6.51A26.18,26.18,0,0,1,292.59,163.36Z"/><path class="cls-9" d="M275.85,180.37c-2.12.64-4.22,1.25-6.11,1.77l-1.52.42c1.1-4.12.42-9.79.42-9.79,1.32-.49,3-1.21,4.74-2,1.67,1.21,3.43,2.45,3.64,2.53S276.54,177.07,275.85,180.37Z"/><path class="cls-31" d="M292.59,163.36l-1.13,12.14s-12.63,7.16-21.39,9.57c1.92-3.67.6-10-1.43-12.3,5.5-2.09,16.73-7.86,19.3-8.52A26.18,26.18,0,0,1,292.59,163.36Z"/><path class="cls-32" d="M271.68,192.09s-14.77-11.7-20.18-11.29c-5.76.44-8,4.73-6.81,8.77s5.63,11.55,5.63,11.55l25.86,6.35V195.34Z"/><path class="cls-27" d="M242.58,258.73c0,1.09-.19,1.94-.61,2.16-1.4.71-22.8-4.26-23.67-6.26-.21-.5.35-1,1.39-1.54,3.08-1.54,10.33-2.94,13.32-3,4-.07,9,2.25,9,2.25A38.82,38.82,0,0,1,242.58,258.73Z"/><path class="cls-33" d="M242.58,258.73c0,1.09-.19,1.94-.61,2.16-1.4.71-22.8-4.26-23.67-6.26-.21-.5.35-1,1.39-1.54C223.23,255.31,230.54,258.63,242.58,258.73Z"/><path class="cls-10" d="M245.28,242.28c0,.26-.72,2.46-1.49,4.74-.88,2.61-1.82,5.33-1.82,5.33-3.7-.2-6.78-.88-9-2.25l1.1-3.83,2.25-7.88Z"/><path class="cls-9" d="M245.28,242.28c0,.26-.72,2.46-1.49,4.74-2.75.36-7,.61-9.68-.75l2.25-7.88Z"/><path class="cls-34" d="M295.4,209.21s-8.74,12.84-15.57,11-22.52-5.52-23.38-5.4-10.67,31.52-10.67,31.52c-5.25.06-10-.37-13.39-2.29,0,0,9.87-44.59,14.6-47s23.28,2.49,23.28,2.49a8,8,0,0,1,1.41-7.47C274.56,188.25,295.4,209.21,295.4,209.21Z"/><path class="cls-32" d="M260.93,222.28s10.19,4.58,14.45-3.73l-7.83-6.64-7.94,5.42Z"/><path class="cls-10" d="M275.38,220.71c-2.42,2.8-4.85,4.8-7.28,5.68l-3.28-4.51-3.89-5.33,8.54-4.64c.28.2,2.31,3.27,3.91,5.72C274.49,219.31,275.38,220.71,275.38,220.71Z"/><path class="cls-9" d="M273.38,217.63c-1.53-.24-6.6-.62-8.56,4.25l-3.89-5.33,8.54-4.64C269.75,212.11,271.78,215.18,273.38,217.63Z"/><path class="cls-27" d="M278.79,228.33c-6.17,5-19.8,4.88-21.38,3.38-.29-.28-.29-.73-.08-1.29h0c.93-2.48,6-7.1,9-8.44,3.63-1.64,9.12-1.5,9.12-1.5a45.68,45.68,0,0,1,2.38,4c.24.44.45.89.64,1.32C279,227,279.21,228,278.79,228.33Z"/><path class="cls-33" d="M278.79,228.33c-6.17,5-19.8,4.88-21.38,3.38-.29-.28-.29-.73-.08-1.29h0c4.56-2.34,14.5-6.91,20.45-5.94.24.44.45.89.64,1.32C279,227,279.21,228,278.79,228.33Z"/><path class="cls-35" d="M278.43,225.8c.52,1.18.78,2.19.36,2.53-6.17,5-19.8,4.88-21.38,3.38C257.41,231.71,271.9,224.63,278.43,225.8Z"/><path class="cls-36" d="M244.52,185.25a14.75,14.75,0,0,0-.31,7.57c.72,2.21,2.43,4.72,4.92,9.43,5.17,9.79,11.8,20,11.8,20,4.16-6.17,9.31-7.46,14.45-3.73,0,0-13.45-26.82-16.18-31.53s-6.69-6.31-8.2-6.21a6.71,6.71,0,0,0-4.89,2.14A5.9,5.9,0,0,0,244.52,185.25Z"/><path class="cls-10" d="M315.2,180c-1.23,2.86-19.8,29.24-19.8,29.24l-23.72-17.12s13.28-17.46,16.26-23.34,4.15-5.56,5.45-5.24c.93.22,3.37,1.14,5,1.38.62.09,1.11.09,1.32-.11l0,0c.73-.72,2.59-4.94,2.59-4.94l6.73-5.74,3.6,3.07s-.79,1.59-1.58,3.38c-.9,2-1.8,4.28-1.55,4.79a3.21,3.21,0,0,0,.5.59c1.44,1.41,5.39,4.35,6.14,6C317,173.79,316.44,177.12,315.2,180Z"/><path class="cls-9" d="M312.62,157.15s-.79,1.59-1.58,3.38c-2.63,2.25-7.62,5.81-11.37,4.25l0,0c.73-.72,2.59-4.94,2.59-4.94l6.73-5.74Z"/><path class="cls-37" d="M315.2,180c-1.23,2.86-19.8,29.24-19.8,29.24l-23.72-17.12s13.28-17.46,16.26-23.34,4.15-5.56,5.45-5.24c.93.22,3.37,1.14,5,1.38-1.45,1.72-2.21,5.14-.78,5.62,3.07,1,8.58-1.44,12.42-4.6,1.44,1.41,5.39,4.35,6.14,6C317,173.79,316.44,177.12,315.2,180Z"/><polygon class="cls-38" points="283.81 164.53 282.92 164.89 262.63 162.72 263.73 152.45 264.73 151.45 284.98 153.62 283.81 164.53"/><rect class="cls-32" x="263.13" y="153.51" width="20.4" height="10.32" transform="translate(18.46 -28.22) rotate(6.12)"/><path class="cls-31" d="M296.61,194.35c-2,1-8.67-5.44-2.61-14.75l7.14,4.18Z"/><path class="cls-10" d="M307.34,187.54c-1.5.74-3.58,1.71-5.89,2.66-1.67.7-3.46,1.39-5.26,2l-1.83.61c-3.25,1-6.37,1.68-8.63,1.5-5.62-.44.11-26.72.11-26.72l5.58-1.79.06,14.9s1-.43,2.52-1.11c1.15-.52,2.6-1.17,4.1-1.88a78,78,0,0,0,7.62-4c3.93-2.53,6.9-2.18,6.9-2.18C320.94,173.76,313.06,184.72,307.34,187.54Z"/><path class="cls-9" d="M302.57,178.09l-1.12,12.11c-1.67.7-3.46,1.39-5.26,2l-1.83.61c2.65-5.16-.36-13.22-.36-13.22,1.15-.52,2.6-1.17,4.1-1.88Z"/><path class="cls-39" d="M307.89,188.92a43.62,43.62,0,0,1-11.28,5.43c2.07-6.85-.81-12.82-2.61-14.75a113.28,113.28,0,0,0,11.72-5.86c3.93-2.53,6.9-2.18,6.9-2.18C320.94,173.76,313.08,185.21,307.89,188.92Z"/><path class="cls-10" d="M291.42,165.81a35,35,0,0,0-2.06,4,21.28,21.28,0,0,1-3.52-2.23c-1.34-1.15-1.41-4.77-1.41-4.77a5.65,5.65,0,0,0-1.48-.49c-.45,0-2.61.94-3,.53s.05-.69.28-.9a.92.92,0,0,0,.14-.13.85.85,0,0,1-.52.1.6.6,0,0,1-.49-.3c-.4-.58,1.64-2.45,2.34-2.63a22.83,22.83,0,0,1,3.45,0,15.72,15.72,0,0,0-2.46-1.34c-.64-.18-3.84.28-3.79-.52S282,156,283,155.64s3.07.85,3.6,1.13c-.81-.5-5.47-3.34-4.62-4s6.61,1.75,7.81,2.88S291.42,165.81,291.42,165.81Z"/><path class="cls-9" d="M285,161c-1.82-.78-3.33,0-4.75,1a.92.92,0,0,0,.14-.13.85.85,0,0,1-.52.1,5.07,5.07,0,0,1,5.25-1.28A.16.16,0,1,1,285,161Z"/><path class="cls-10" d="M268.58,154.68c-.36.9-3.12-.05-3.69.07s-2.58.9-2.58.9,5.73.39,5.47,1.55a1.19,1.19,0,0,1-.37.69,1.07,1.07,0,0,1-.75.19.51.51,0,0,1,.29.21.52.52,0,0,1,.07.43c-.13.67-3.06,1-3.06,1a4.9,4.9,0,0,1-.39,3.83c-1.08,2.42-4,1.36-4,1.36l-1.79-2.12s-.1-8.25.86-9.41,6.33-3.19,7.48-2.79-3.82,2.63-4.15,2.79a12.24,12.24,0,0,1,3.33-.42C266.45,153.11,268.76,154.21,268.58,154.68Z"/><path class="cls-9" d="M266.66,158.08a.51.51,0,0,1,.29.21,12.41,12.41,0,0,0-1.75-.42c-1-.15-2-.14-3.05-.22a.07.07,0,0,1,0-.13,9.36,9.36,0,0,1,5.27.37A1.07,1.07,0,0,1,266.66,158.08Z"/><path class="cls-27" d="M320.89,151.56s1.73,5.74-4.61,4.58l-22.49-4.8s-8.38-1.54-3.76-6.07a9.85,9.85,0,0,1-1.33-1.45c-1.25-1.67-2.36-4.35,2.06-5.63,0,0-2.07-5.85,5.08-5.19,0,0,1-6.76,7.11-2.35,0,0,3.58-5.27,6.69-.12,0,0,3.86-2.19,5.79.59a6.65,6.65,0,0,1,1,3s6.38-.81,3.85,5.46c0,0,5.35,1.69,1.35,6.08C321.62,145.71,325.65,148.73,320.89,151.56Z"/><path class="cls-40" d="M315.43,131.12a7.37,7.37,0,0,0-6.1.36c-3.63-3.67-6.29.46-6.29.46-4.66-3.62-6.56,2.32-6.56,2.32-6.12.06-4.23,5-4.23,5-3.06.88-3.57,3-3.55,4.53-1.25-1.67-2.36-4.35,2.06-5.63,0,0-2.07-5.85,5.08-5.19,0,0,1-6.76,7.11-2.35,0,0,3.58-5.27,6.69-.12C309.64,130.53,313.5,128.34,315.43,131.12Z"/><path class="cls-9" d="M297.47,154c-.49,1.31-2.48,1.78-4.46,1s-3.19-2.39-2.7-3.7,2.48-1.78,4.46-1.05S298,152.71,297.47,154Z"/><path class="cls-10" d="M316.2,148.6a18.35,18.35,0,0,1-.31,2.5c-1.46,7.59-9.06,12.28-16.39,11.62-5.43-.49-7.06-7.39-5.6-15a13.33,13.33,0,0,1,.35-1.48,15.45,15.45,0,0,1,4.55-7.55,10.42,10.42,0,0,1,7.8-2.78c5.58.49,8.6,4,9.42,8.69A15.35,15.35,0,0,1,316.2,148.6Z"/><path class="cls-9" d="M317,146.6l-.81,2-1.84,4.63a25.78,25.78,0,0,1-3.5-6.34s-3.69.89-4.71-1.26c0,0-3.59,1.26-4.85-.82,0,0-3.8,2.54-5.06,0,0,0-.43,1.7-2,1.45a15.45,15.45,0,0,1,4.55-7.55c4,.24,14.77.94,14.77.94l2.45,5Z"/><path class="cls-27" d="M314.09,154a35.7,35.7,0,0,1-2.24-9,3.74,3.74,0,0,1-5-1.37s-4.05,2.19-5.5-.46c0,0-4.06,2.82-5.32-.25,0,0-.41,1.9-1.38,1.84s-1.81-5.47,4.84-8.25a13.75,13.75,0,0,1,14.1,1.69c2.61,1.88,3.87,6.57,3.58,9-.15,1.34-.14,4.94-.94,6.4C315.6,154.83,314.09,154,314.09,154Z"/><path class="cls-10" d="M319,154.7c.1,1.39-1.53,2.64-3.63,2.79s-3.88-.85-4-2.25,1.52-2.64,3.62-2.79S318.94,153.3,319,154.7Z"/><path class="cls-13" d="M303.82,152.56c-.13.54-.48.93-.77.86s-.43-.57-.3-1.12.48-.92.77-.85S304,152,303.82,152.56Z"/><path class="cls-13" d="M296.78,151.73c0,.56-.29,1-.59,1s-.53-.48-.5-1,.29-1,.6-1S296.81,151.17,296.78,151.73Z"/><path class="cls-16" d="M298.66,151.7a4,4,0,0,0,0,2.89"/><path class="cls-41" d="M303.68,148.29a3.56,3.56,0,0,1,2.93,1.05"/><path class="cls-41" d="M294.92,148.63a2.43,2.43,0,0,1,2.63-.56"/><path class="cls-16" d="M298.92,157.51a5.39,5.39,0,0,0,5.82-1.87"/><path class="cls-28" d="M310.44,219.15c-9.28,16.62-43.55,17.9-43.55,17.9,2.11-.38,4.19-1.85,6.13-3.88,5.37-5.61,9.69-15.49,11-18.62,2.93-7.08,9-6.12,17.81-7.08,6.75-.74,12-7.44,14.17-10.56.66-1,1-1.59,1-1.59S319.72,202.53,310.44,219.15Z"/><path class="cls-42" d="M316,196.91c-.92,3.45-5.23,10.31-12.07,11.9-9.69,2.25-15.12,1.51-17,4.32-1.63,2.46-6.47,16-13.93,20,5.37-5.61,9.69-15.49,11-18.62,2.93-7.08,9-6.12,17.81-7.08C308.58,206.73,313.87,200,316,196.91Z"/><path class="cls-25" d="M117.71,226c7-4.62,13.47-10.18,21.66-12.5,24.33-6.88,43.61,16.71,56.75,33.38,7.91,10,17.66,23.46,14,37C201,317.86,146.78,314.18,121,308.21c-18.81-4.35-45.23-13.74-53-33.39-4.57-11.61,1.58-24,10.6-31.46,9.5-7.89,21.43-8.24,32.07-13.26A55.68,55.68,0,0,0,117.71,226Z"/><path class="cls-43" d="M153.23,253.26c-.45-.59-9.26-21.74-9.26-21.74s-4.11.22-6.82,7.5-12.91,39.16-12.91,39.16l9.88,6.15,6.14-2.54Z"/><path class="cls-44" d="M200.55,285.31H150s-7.21-14.6-8.29-27.5c-.75-8.88,0-25.08,2.22-26.29a64.44,64.44,0,0,1,7-2.46c.09,5.22,5.15,13.5,12,15.58,6.2,1.88,17.58-8.23,22.56-13,4.59,3,9.12,6,10,7.56C197,241.64,200.55,285.31,200.55,285.31Z"/><path class="cls-10" d="M185.54,231.65c-5,4.76-16.36,14.87-22.56,13-6.84-2.08-11.9-10.36-12-15.58a64.24,64.24,0,0,0,7.75-2.8h0c.29-.16.45-.3.47-.41.15-1-1.67-9.84-1.67-9.84l14.89-3.46a29.86,29.86,0,0,0,.92,6.29c.75,2.89,2.12,6.06,4.61,7.8C180,228.05,182.77,229.84,185.54,231.65Z"/><path class="cls-9" d="M159.22,225.85c.15-1-1.67-9.84-1.67-9.84l14.89-3.46a29.86,29.86,0,0,0,.92,6.29C162.09,230.5,159.2,226,159.22,225.85Z"/><path class="cls-9" d="M146,207.35c-.85,2.31-4.47,3.11-8.07,1.77s-5.82-4.29-5-6.6,4.47-3.11,8.07-1.77S146.89,205,146,207.35Z"/><path class="cls-11" d="M148.12,181.73l-8.31,1.71s-4.85,11.89-1.45,19.85C140.87,209.18,148.12,181.73,148.12,181.73Z"/><path class="cls-10" d="M182.28,200.6a28.54,28.54,0,0,1-1.85,6c-4.9,11.42-18.58,18.79-28.75,16.82-11.87-2.3-15.22-16.44-12.36-31.17a33.12,33.12,0,0,1,2.1-6.81c4.66-10.88,14.64-17.61,24.56-15.68C177.84,172.07,185.14,185.88,182.28,200.6Z"/><path class="cls-45" d="M175.91,177.84s3.36-4.53,7-4,6.91,4.91,6.91,4.91-5.66-2.88-8.74-2.48c0,0,5.22,1.79,6.16,6.76C187.23,183.06,182.26,178.15,175.91,177.84Z"/><path class="cls-45" d="M181.85,173.89c-3.35,5.49-9.18,8.05-13,5.71s-4.23-8.69-.88-14.19,7.51-9,13-5.71C186.85,163.25,185.2,168.39,181.85,173.89Z"/><path class="cls-11" d="M183.8,200.65a50.12,50.12,0,0,1-2.2,6.32C179.33,208.63,175,209,175,209c0-.41-3.48-19.29-3.57-19.79,0,.63-16.53-4.87-30-3.78l-.41-.29a7.16,7.16,0,0,1-1.86-2.08h0c-4.06-7,9.31-17.24,24.15-15.18l.78.13c.53.09,1.07.19,1.6.31,6,1.37,10.49,3.94,13.64,7.33C185.2,182,186.4,191.12,183.8,200.65Z"/><path class="cls-40" d="M179.32,175.67c-10.12-4.37-31.93-10.69-40.17,7.41-4.06-7,9.31-17.24,24.15-15.18l.78.13c.53.09,1.07.19,1.6.31C171.66,169.71,176.17,172.28,179.32,175.67Z"/><path class="cls-13" d="M160.63,204.49c0,1.08-.39,1.95-.88,1.95s-.89-.87-.89-1.95.4-2,.89-2S160.63,203.41,160.63,204.49Z"/><path class="cls-13" d="M144.4,203c0,1.08-.39,2-.88,2s-.88-.87-.88-2,.39-2,.88-2S144.4,201.9,144.4,203Z"/><path class="cls-16" d="M149.24,203.24a10.42,10.42,0,0,0-.43,5.9"/><path class="cls-46" d="M159.56,194a6.73,6.73,0,0,1,5.24,1.42"/><path class="cls-46" d="M142,190.27a6.13,6.13,0,0,1,5.1,1.25"/><path class="cls-16" d="M152.06,214.49a10.81,10.81,0,0,0,8.3-2"/><path class="cls-10" d="M187.14,207.71c.47,2.43-2.21,5-6,5.7s-7.2-.65-7.67-3.07,2.21-5,6-5.7S186.67,205.29,187.14,207.71Z"/><path class="cls-47" d="M188.22,236.29a10.64,10.64,0,0,1,8,3.47,138.27,138.27,0,0,1,11.71,15.11c10.55,15.17,14.35,22.92,11,27.2s-41.9,3.24-41.9,3.24L173.6,275l19.4-3.91s-10.35-15.67-11.65-22.12C180.27,243.54,181.23,236.47,188.22,236.29Z"/><path class="cls-10" d="M177.34,285.21s-2.89,1.31-8.74.65-7.24-4.6-7.24-4.6-4.14,1-5.31-.47a1.77,1.77,0,0,1-.24-1.79,2.5,2.5,0,0,1,.18-.32,1.93,1.93,0,0,1-.73.24,2.36,2.36,0,0,1-1.89-.63c-1.32-1.13-.13-3,0-3.14h0a2.12,2.12,0,0,1-.79.15,2,2,0,0,1-1.83-1.29c-.94-1.9,4-4.5,4.41-4.71-.49.14-8.35,2.46-9.15,2.57s-2.46.06-1.42-1.85,9.43-6.35,16.24-4.87S173.6,275,173.6,275Z"/><path class="cls-9" d="M153.33,275.15h0a20,20,0,0,1,8.8-5.64A.27.27,0,0,0,162,269a15.9,15.9,0,0,0-9.46,6.32Z"/><path class="cls-9" d="M163.79,273.18a18.23,18.23,0,0,0-8,5.82,2.5,2.5,0,0,1,.18-.32,1.93,1.93,0,0,1-.73.24,13.31,13.31,0,0,1,8.34-6.2C163.86,272.67,164.07,273.05,163.79,273.18Z"/><rect class="cls-48" x="52.89" y="284.33" width="167.87" height="6.45"/><rect class="cls-49" x="63.11" y="279.26" width="101.57" height="5.08"/><rect class="cls-50" x="132.4" y="279.26" width="32.28" height="5.08"/><rect class="cls-49" x="139.22" y="280.76" width="8.06" height="2.06"/><rect class="cls-49" x="153.23" y="280.76" width="8.06" height="2.06"/><path class="cls-49" d="M137.83,281.79a1,1,0,1,1-1-.91A.95.95,0,0,1,137.83,281.79Z"/><polygon class="cls-4" points="132.4 278.65 129.63 280.78 55.76 280.78 45.55 237.87 48.23 235 123.92 235 132.4 278.65"/><polygon class="cls-50" points="129.63 280.78 55.76 280.78 45.55 237.87 120.84 237.87 129.63 280.78"/><path class="cls-4" d="M101,258.7c0,2.39-5.22,4.32-11.65,4.32s-11.65-1.93-11.65-4.32,5.22-4.31,11.65-4.31S101,256.32,101,258.7Z"/><path class="cls-51" d="M206.22,208.75c-.62,1.81-3.74,2.4-7,1.3s-5.35-3.45-4.74-5.27,3.74-2.4,7-1.31S206.84,206.93,206.22,208.75Z"/><polygon class="cls-52" points="215.89 190.11 213.01 196.35 212.6 197.24 211.82 198.93 211.41 199.82 210.63 201.51 210.22 202.4 209.43 204.09 209.03 204.98 208.25 206.67 207.84 207.56 207.14 209.07 193.6 204.48 193.93 202.84 194.13 201.89 194.49 200.05 194.69 199.09 195.05 197.25 195.25 196.3 195.61 194.46 195.81 193.5 196.18 191.67 196.36 190.71 197.72 183.95 215.89 190.11"/><polygon class="cls-51" points="213.01 196.35 212.6 197.24 196.18 191.67 196.36 190.71 213.01 196.35"/><polygon class="cls-51" points="195.81 193.5 211.82 198.93 211.41 199.82 195.61 194.46 195.81 193.5"/><polygon class="cls-51" points="210.63 201.51 210.22 202.4 195.05 197.25 195.25 196.3 210.63 201.51"/><polygon class="cls-51" points="209.43 204.09 209.03 204.98 194.49 200.05 194.69 199.09 209.43 204.09"/><polygon class="cls-51" points="208.25 206.67 207.84 207.56 193.93 202.84 194.13 201.89 208.25 206.67"/><path class="cls-36" d="M224.8,184.06c-2.5,7.38-9.61,10.2-17,8.73-.31,0-.62-.12-.93-.2-.6-.15-1.2-.32-1.8-.52a21.14,21.14,0,0,1-2.48-1q-.45-.21-.87-.45c-6.16-3.4-9.36-9.61-7-16.7a15.85,15.85,0,0,1,30,10.17Z"/><path class="cls-53" d="M218.07,182.06c-.85,2.6-4.43,5.24-8.38,6.23l-1.87,4.5c-.31,0-.62-.12-.93-.2l2.12-5.11.23-.06c3.68-.85,7.17-3.33,7.94-5.65a2.65,2.65,0,0,0-.53-2.7,2.43,2.43,0,0,0-1.79-.87c-2.67-.13-6.12,3.11-6.15,3.14l-.7.66-.09-1s-.43-4.4-2.49-5.64a2.5,2.5,0,0,0-2.37,0,2.53,2.53,0,0,0-1.54,1.62c-1,3,2.14,8.19,2.17,8.25l.1.16L202.61,191q-.45-.21-.87-.45l1-5c-.55-1-3.19-5.77-2.17-8.87a3.47,3.47,0,0,1,2.08-2.19,3.4,3.4,0,0,1,3.22.11c1.84,1.1,2.56,4,2.81,5.47,1.22-1,3.85-2.93,6.18-2.81a3.38,3.38,0,0,1,2.45,1.21A3.57,3.57,0,0,1,218.07,182.06Z"/><path class="cls-54" d="M199.18,169.66a9.23,9.23,0,0,1,2.95-2.85,13.87,13.87,0,0,1,12.64-1.46c6.28,2.47-1.73.27-7.76,1.82C201.58,168.57,196.79,173.38,199.18,169.66Z"/><path class="cls-2" d="M223.05,0a63.83,63.83,0,0,0-24.19,5.4c-11.33,5-17.73,16.47-24.87,26-6,8.09-13.2,16-22.76,19.28-9.06,3.09-19.18,1.59-28.27,4.58-16.84,5.54-25.51,26.11-21.58,43.39s17.76,30.93,33.43,39.21c32.6,17.23,74.18,13.83,105.58-5.49,17.4-10.71,32.2-26.31,39.64-45.33,14.33-36.61-4.35-79.18-45-86.2A62,62,0,0,0,223.05,0Z"/><rect class="cls-55" x="111.04" y="28.75" width="168.06" height="107.29"/><rect class="cls-56" x="111.04" y="28.75" width="168.06" height="9.09"/><path class="cls-55" d="M253.06,33.3a2,2,0,1,1-2-2A2,2,0,0,1,253.06,33.3Z"/><path class="cls-55" d="M262.84,33.3a2,2,0,1,1-2-2A2,2,0,0,1,262.84,33.3Z"/><path class="cls-55" d="M272.57,33.3a2,2,0,1,1-2-2A2,2,0,0,1,272.57,33.3Z"/><g class="cls-57"><path class="cls-58" d="M236.11,76.92c-.42,2.64-4.59,3.41-7.91,7.2s4.19,4.59,4.66,7.55-.09,7-5.18,8.87-49,8.61-53.49,1.32,1-12.44,3-14.07-7.52-2.61-7.49-7.94c0-4.32,9-5,7.67-7.45s-8.22-1.76-7.67-5.16,11.38-5,11.57-7.1c.09-1.08-.61-4.8-1-9.37h0c-.35-4.39.77-11.11,2.06-15.42,0,0,4.77-4.49,9.8-5.75a65.27,65.27,0,0,1,13.52-1.7l15.1,10,1.59-4.39a.19.19,0,0,1,0,.07s0,.07,0,.1c.1.45.37,1.72.66,3.4.73,4.34,1.62,11.54.14,15.16-2.21,5.4,6.2,6.35,8.54,8.27s.33,5.27-3.76,7.86S237,71.41,236.11,76.92Z"/><polygon class="cls-52" points="224.03 98.61 213.32 85.58 186.59 83.65 177.18 136.05 220.15 136.38 224.03 98.61"/><path class="cls-10" d="M214.94,86.8s-16.52,20.56-19.49,20.56-8.86-23.71-8.86-23.71A8.33,8.33,0,0,0,191.82,81a9.15,9.15,0,0,0,1.55-3.84c1.1-5.11.7-12.59.7-12.59l16.9-3c-.31,0-2.75,7.21-2.43,14C208.75,80.41,210.32,85,214.94,86.8Z"/><path class="cls-9" d="M208.54,75.62C204,76.92,198,78.1,193.37,77.13c1.1-5.11.7-12.59.7-12.59l16.9-3C210.66,61.58,208.22,68.79,208.54,75.62Z"/><path class="cls-9" d="M227.42,52.93c.37,1.93-1.84,4-4.93,4.55S216.6,57,216.24,55s1.84-4,4.93-4.56S227.06,51,227.42,52.93Z"/><path class="cls-9" d="M188.43,55c-.32,1.94-3.1,3.09-6.2,2.56s-5.35-2.52-5-4.46,3.11-3.09,6.21-2.57S188.76,53,188.43,55Z"/><path class="cls-10" d="M221.56,50.58c-.74,12.14-9.21,22.68-20.36,22.68-10.6,0-17.67-12.84-16.92-25s9.7-21.47,20-20.84S222.31,38.44,221.56,50.58Z"/><path class="cls-9" d="M220.82,49.42,216.2,44.6S203.2,45.88,197,37c0,0-1.59,6-10.45,10.51l-2.3,3.29s-3.61-18.55,9.08-21.27,26.6,2.44,28.46,10.63S220.82,49.42,220.82,49.42Z"/><path class="cls-58" d="M221.32,53.13l-2.84-9.91s-15.28.24-21.39-10.77c0,0-5.63,11.5-11.26,14.2L184.21,54c-.36-.14-1.66-3.48-2.25-8a30.77,30.77,0,0,1,.07-9.13,0,0,0,0,1,0,0c1-5.82,4.28-11.43,12.24-13.67,9.06-2.56,18.49-1.93,24.24,3a14.9,14.9,0,0,1,4.68,7.28.17.17,0,0,1,0,.07.13.13,0,0,1,0,.1,17.81,17.81,0,0,1,.66,3.4C224.35,41.35,223.62,46.69,221.32,53.13Z"/><path class="cls-40" d="M218.52,26.17c-6.4-1.1-17.14-1.79-25.54,3.42C188,32.65,183.91,37.75,182,46a42,42,0,0,0-.83,4.74c-.35-4.39-.39-9.56.9-13.87a0,0,0,0,1,0,0c1-5.82,4.28-11.43,12.24-13.67C203.34,20.63,212.77,21.26,218.52,26.17Z"/><path class="cls-13" d="M211,53.38c0,1-.42,1.88-.94,1.88s-.95-.84-.95-1.88.43-1.89.95-1.89S211,52.33,211,53.38Z"/><path class="cls-13" d="M194.71,52.21c0,1-.42,1.88-.94,1.88s-1-.84-1-1.88.43-1.89,1-1.89S194.71,51.17,194.71,52.21Z"/><path class="cls-14" d="M207.81,60.81c-.26.1-9.34,1.3-9.34,1.3s1.21,4.82,5,4.39S207.81,60.81,207.81,60.81Z"/><path class="cls-16" d="M200.74,52.16a40.1,40.1,0,0,0,.12,6.2"/><path class="cls-59" d="M209,45.54a3.71,3.71,0,0,1,4,.81"/><path class="cls-59" d="M189.88,45.84a4.27,4.27,0,0,1,4.83-.66"/><path class="cls-60" d="M188.46,82.81S182.9,115,181,136l-16.64.32-16.39.32s16.89-43.74,22.25-48.14A12.61,12.61,0,0,1,172,87.36C178,84,188.46,82.81,188.46,82.81Z"/><path class="cls-61" d="M170.24,88.54A12.61,12.61,0,0,1,172,87.36a60.57,60.57,0,0,0-3.76,13.92c-.82,6.59-2.87,25.93-3.84,35.08l-16.39.32S164.88,92.94,170.24,88.54Z"/><path class="cls-62" d="M139.46,87s-7.65-13.5-16.29-16.67l2,8.82Z"/><path class="cls-63" d="M139.46,87s-8.34-13.11-18.31-14l-4.32,5.18,18.93,15,2.63-1.7Z"/><polygon class="cls-63" points="163.1 73.26 165.83 81.97 164.47 85.13 163.6 80.04 163.1 73.26"/><path class="cls-64" d="M138.39,91.41,139.46,87s9.61-11.86,23.64-13.72l.77,7.6Z"/><path class="cls-6" d="M138.39,91.41S127.7,77.25,115.33,77.5L128.81,114s8.23.5,18.9,11.07Z"/><path class="cls-65" d="M147.71,125.06c-.75.7-9.32-33.65-9.32-33.65s9-9.91,27.44-12.76l7.42,37.06S155.88,117.26,147.71,125.06Z"/><path class="cls-66" d="M145.27,93.11c4.75-4.45,10-7.25,16.22-7.53l2.17,9.84c-6,.71-10.88,4-15.3,7.69Z"/><path class="cls-67" d="M141.79,138.06s-2.44-14.35,11.9-11.43l.65,5.29Z"/><path class="cls-10" d="M148.41,137.91l-4.14-6.61-.75-1.19c-2.69-3.38-14.79-19.8-13.54-22.75s8.41,8.27,8.41,8.27-4.44-12.37-2.64-13.4,7.94,14.44,7.94,14.44-1.35-12.26,0-12.67,2.18,2.28,2.18,2.28.65-1.29,1.84-1.11,3.42,12.33,3.42,12.33,2.23,2.56,2.52,7.65c0,.47,0,1,0,1.48h0s2.33,6.2,2.61,6.48S148.41,137.91,148.41,137.91Z"/><path class="cls-9" d="M148.41,137.91l-4.14-6.61c4-.1,7.49-3.73,9.38-6.15,0,.47,0,1,0,1.48h0s2.33,6.2,2.61,6.48S148.41,137.91,148.41,137.91Z"/><path class="cls-9" d="M146.07,106a56.39,56.39,0,0,0,1.55,11.32c.08.33-.43.47-.51.14a41.78,41.78,0,0,1-1.47-11.76Z"/><path class="cls-60" d="M153.69,126.29a29.2,29.2,0,0,1-11.9,11.77l6,6,15.36-7.64Z"/><path class="cls-60" d="M248,136.05H229.65L209,136.8s.17-40.37,4.29-51.22c0,0,10.45,5,16.46,9.58a13.49,13.49,0,0,1,3.85,3.91C236.09,104,248,136.05,248,136.05Z"/><path class="cls-61" d="M248,136.05H226.82c-1.57-12.28-1.33-35.78.64-39.2a2.93,2.93,0,0,1,2.32-1.69,13.49,13.49,0,0,1,3.85,3.91C236.09,104,248,136.05,248,136.05Z"/><path class="cls-67" d="M257.66,138.24s1.59-7.87-2.29-10.37-5.47,4.57-5.47,4.57l3.39,4.92Z"/><path class="cls-68" d="M251.72,121.79c.13-.21,1.49-8.12,5.48-11s9.05-9.89,10.08-9.6-4.72,18.18-4.72,18.18Z"/><path class="cls-58" d="M255.13,118.4s39.24-60.79,40.49-60.48-38,61.93-38,61.93Z"/><path class="cls-10" d="M275.1,115.82c-.67,3.81-18.22,15.82-18.22,15.82l-.33.37-4.46,5-5.19-9.67,2.92-3.64-.11-.13a8.23,8.23,0,0,1,.85-2.09c2.79-4.85,9.43-4.57,9.43-4.57s-2.23-8.85-1.05-10.18c.78-.88,2,.26,2.14.37-.1-.15-1.39-2,.27-3s5.58,9.1,5.85,9.75c-.16-.68-2.66-11.89-.95-14.43s4.5,11.33,4.5,11.33.68-14.84,2.45-15.66S275.79,112,275.1,115.82Z"/><path class="cls-68" d="M256.55,132l-4.46,5-5.19-9.67,2.92-3.64-.11-.13a8.23,8.23,0,0,1,.85-2.09C251.27,124.83,252.94,129.77,256.55,132Z"/><path class="cls-68" d="M261,107h0c2.21,3.14,3.29,6.79,4.34,10.5a.29.29,0,0,1-.55.15c-1-3.87-2.2-7.78-4.47-11.11Z"/><path class="cls-60" d="M234.46,135.44c.48,0,15.73-13.18,15.73-13.18s1.22,14.42,7.47,16l-6.65,5Z"/></g></g></g></svg>