<svg xmlns="http://www.w3.org/2000/svg" xmlns:xlink="http://www.w3.org/1999/xlink" viewBox="0 0 302.01 279.52"><defs><style>.cls-1,.cls-15,.cls-16,.cls-41,.cls-46,.cls-56{fill:none;}.cls-2{fill:#00afb9;}.cls-3{fill:#84af98;}.cls-4{fill:#5f505e;}.cls-5{fill:#a59547;}.cls-6{fill:#927a35;}.cls-7{fill:#776774;}.cls-8{fill:#4c404b;}.cls-9{fill:#f47567;}.cls-10{fill:#ff917b;}.cls-11{fill:#29150f;}.cls-12{fill:#593a2e;}.cls-13{fill:#333;}.cls-14{fill:#fff;}.cls-15,.cls-46{stroke:#29150f;}.cls-15,.cls-16,.cls-41,.cls-46,.cls-56{stroke-linecap:round;stroke-linejoin:round;}.cls-15,.cls-16,.cls-41{stroke-width:0.67px;}.cls-16{stroke:#db4242;}.cls-17{fill:#fca590;}.cls-18{fill:#d8c5bf;}.cls-19{fill:#837984;}.cls-20{fill:#ccb3ac;}.cls-21{fill:#bcaf8e;}.cls-22{fill:#d3cca5;}.cls-23{fill:#e6e6be;}.cls-24{fill:#d28148;}.cls-25{fill:#4361ee;}.cls-26{fill:#59442c;}.cls-27{fill:#2f1a10;}.cls-28{fill:#907b31;}.cls-29{fill:#715a24;}.cls-30{fill:#896867;}.cls-31{fill:#af9590;}.cls-32{fill:#e07127;}.cls-33{fill:#5b432c;}.cls-34{fill:#f8932a;}.cls-35{fill:#7c6a52;}.cls-36{fill:#f9ab4e;}.cls-37{fill:#ccb3ab;}.cls-38{fill:#f79427;}.cls-39{fill:#dbc6bd;}.cls-40{fill:#44331c;}.cls-41{stroke:#2f1a10;}.cls-42{fill:#a39d4f;}.cls-43{fill:#ef8425;}.cls-44{fill:#f79429;}.cls-45{fill:#190b09;}.cls-46,.cls-56{stroke-width:0.9px;}.cls-47{fill:#fca338;}.cls-48{fill:#d68149;}.cls-49{fill:#3d313b;}.cls-50{fill:#4f414d;}.cls-51{fill:#f0fcf7;}.cls-52{fill:#2d00f7;}.cls-53{clip-path:url(#clip-path);}.cls-54{fill:#2d1b0f;}.cls-55{fill:#5f5260;}.cls-56{stroke:#2d1b0f;}.cls-57{fill:#f3dfc3;}.cls-58{fill:#e5cdb7;}.cls-59{fill:#bcb3a6;}.cls-60{fill:#dbd8cc;}.cls-61{fill:#f2f1e7;}.cls-62{fill:#b99a4c;}.cls-63{fill:#ddd083;}.cls-64{fill:#d1ad93;}.cls-65{fill:#d84848;}</style><clipPath id="clip-path"><rect class="cls-1" x="90.82" y="13.09" width="182.69" height="108.77"/></clipPath></defs><g id="Layer_2" data-name="Layer 2"><g id="Layer_1-2" data-name="Layer 1"><g id="Layer_2-2" data-name="Layer 2"><g id="OBJECTS"><path class="cls-2" d="M31.67,71.66A32,32,0,0,0,28,73.77C10.75,85.42,1.72,107.58.2,127.73,0,129.81,0,131.9,0,134c.38,24.24,14.85,48.27,37.05,58s51,3.21,65.22-16.4c6.81-9.38,10.1-22.21,5.27-32.74-6.77-14.79-24.72-19.27-33.09-32.7-7.3-11.65-1.17-28.3-13.09-37.53C53,66.17,40.72,67.18,31.67,71.66Z"/><path class="cls-3" d="M114.14,188.26c0,2.39-22.84,4.33-51,4.33s-51-1.94-51-4.33,22.84-4.32,51.05-4.32S114.14,185.88,114.14,188.26Z"/><polygon class="cls-4" points="32.32 186.11 30.41 186.11 30.41 150.87 26.07 132.19 27.98 132.19 32.32 150.78 32.32 186.11"/><polygon class="cls-4" points="51.38 185.18 49.46 185.18 49.46 150.55 45.12 132.19 47.04 132.19 51.38 150.46 51.38 185.18"/><rect class="cls-4" x="45.12" y="153.13" width="1.92" height="32.99"/><rect class="cls-4" x="67.95" y="153.13" width="1.92" height="32.99"/><path class="cls-5" d="M42.26,137.24H25.17a7.51,7.51,0,0,1-6.82-5.67l-4.09-17.51c-.7-3,1.12-5.33,4-5.33H34.75a7.47,7.47,0,0,1,6.73,5.33l4.75,17.51C47.07,134.68,45.3,137.24,42.26,137.24Z"/><path class="cls-6" d="M42.54,137.24H26.6c-2.84,0-5.7-2.56-6.38-5.67L16.4,114.06c-.65-3,1-5.33,3.78-5.33H35.52c2.69,0,5.54,2.38,6.27,5.33l4.43,17.51C47,134.68,45.38,137.24,42.54,137.24Z"/><path class="cls-5" d="M72.59,154.36H30.88a2.45,2.45,0,0,1-2.45-2.45h0a2.43,2.43,0,0,1,2.44-2.43H72.59A2.43,2.43,0,0,1,75,151.9h0A2.45,2.45,0,0,1,72.59,154.36Z"/><path class="cls-6" d="M72.59,154.36H34.3a2.45,2.45,0,0,1-2.45-2.45h0a2.43,2.43,0,0,1,2.44-2.43h38.3A2.43,2.43,0,0,1,75,151.9h0A2.45,2.45,0,0,1,72.59,154.36Z"/><path class="cls-4" d="M33.67,97.72s-7.8-3.83-8.69,4c-.63,5.44,1.79,26.28,5.37,27.29s5.33-8.75,5.33-8.75Z"/><path class="cls-7" d="M36.41,118s-7.16-3.65-10.34,2.49c-.24,2.34.8,5.48,2.5,6.62,0,0,5.37-3,7.47-3Z"/><path class="cls-8" d="M50.5,104.49l.7-6.11s2.92-1.1,5.06.63,8.42,17.91,8.42,17.91l-7.48,7.42Z"/><path class="cls-7" d="M54.4,122c0-.28,3.35-9.58,11.54-7.92s5.13,5.72,5.13,5.72l-13.44,7.29Z"/><path class="cls-4" d="M37.15,98.18s-6-1.38-8.95.5c-1.33.84,2.24,8.19,4.16,16.45a176.44,176.44,0,0,1,3.32,21.33l24.88-3.76s-5.5-20.38-5.7-27.76-1.93-7-6.66-5.9S37.15,98.18,37.15,98.18Z"/><path class="cls-9" d="M36.72,97.69s3.88,10.38,8.22,9.31,4.81-10.54,4.81-10.54Z"/><path class="cls-9" d="M55.74,91.31c.62,1.18-.34,2.91-2.15,3.86s-3.77.75-4.4-.43.35-2.91,2.16-3.86S55.13,90.12,55.74,91.31Z"/><path class="cls-10" d="M52.61,91.86c.42,6.7-3,12.29-8.18,12.62S34.12,99.74,33.68,93s3.53-11.91,8.7-12.72C52.65,78.71,52.19,85.15,52.61,91.86Z"/><path class="cls-11" d="M54.72,86c-.74.63-1.31,1.08-1.31,1.08l-.76,5.74c-.26-2.69-.51-5.23-1.13-6.44,0,0-12.8.75-13.88.84,0,0-.56,4.48-2,6.66H33.13s-2.32-6.8-1.79-10.25,2.57-7.16,3.58-6.78.53,2.75.53,2.75,1.34-1.12,3.16-2.5h0c3.39-2.57,8.48-6.08,10-5.32,2.28,1.13-.16,4.61-.32,4.84.32-.12,7.21-2.69,8.3-.89S53,82,53,82s4.32-1,4.85.11C58.14,82.86,56.14,84.78,54.72,86Z"/><path class="cls-12" d="M54.72,86a5.15,5.15,0,0,0,.8-2.69c-.27-1.24-5,.28-5,.28s4.73-5.37,4-6.61-8.35,1.57-8.35,1.57S48,75,46.58,74.12c-.9-.54-5.13,1.48-8,3,3.38-2.56,8.47-6.08,10-5.32,2.28,1.13-.15,4.61-.31,4.84.32-.11,7.2-2.68,8.3-.89S53,82,53,82s4.33-1,4.85.11C58.14,82.86,56.14,84.78,54.72,86Z"/><path class="cls-10" d="M36.63,95.28c-.41,1.27-2.31,1.79-4.26,1.2s-3.2-2.15-2.8-3.42,2.3-1.79,4.25-1.19S37,94.05,36.63,95.28Z"/><path class="cls-13" d="M41.83,96.46c0,.49-.17.89-.39.89s-.37-.39-.37-.89.17-.9.37-.9S41.83,96,41.83,96.46Z"/><path class="cls-13" d="M50.15,95.77c0,.49-.17.89-.39.89s-.37-.4-.37-.89.17-.9.37-.9S50.15,95.27,50.15,95.77Z"/><path class="cls-14" d="M47.25,99.91s-3.48.78-5.38-1a2.2,2.2,0,0,0,1.84,2.5l.15,0A3.34,3.34,0,0,0,47.25,99.91Z"/><path class="cls-15" d="M48.87,91.07a2,2,0,0,1,2.44.33"/><path class="cls-15" d="M42.21,91.54a2.53,2.53,0,0,0-2.88.59"/><path class="cls-16" d="M47.32,95.92a6.07,6.07,0,0,1,.1,2.51"/><path class="cls-17" d="M35.82,106c-.11-.25-2.22-3.78-2.44-7.07s.89-6.27,1.71-5.89,0,5.15,0,5.15S35.91,93,37,93.35s-.24,6.27-.24,6.27,1.19-4.34,2-4.18-.44,6.07-.44,6.07.52-3.65,1.54-3.59-.34,4.62-.34,4.62,2.57,2.56,1,5.66Z"/><path class="cls-17" d="M35.82,106s-8,17.13-7.39,20.6c.32,1.92,2.3,2.93,4,3s3.92-.71,4.94-5.38c1.26-5.74,3.25-16.12,3.25-16.12Z"/><polygon class="cls-18" points="72.58 148.05 50.19 149.48 68.33 138.15 72.58 148.05"/><path class="cls-10" d="M94.39,157.29c.06.51,4.8,6.81,4.8,6.81L94,168.19l-4.8-5.82Z"/><path class="cls-4" d="M96.36,173.51a1.53,1.53,0,0,1-.72-.54c-1.27-1.46-1.94-5.14-1.94-5.14l5-4.36s6.48-2.47,9.22-2.28a1.88,1.88,0,0,1,.9.23C110.56,162.58,98.09,174.1,96.36,173.51Z"/><path class="cls-19" d="M96.36,173.51a1.53,1.53,0,0,1-.72-.54c2.17-1.48,8.72-6.26,12.31-11.78a1.88,1.88,0,0,1,.9.23C110.56,162.58,98.09,174.1,96.36,173.51Z"/><path class="cls-19" d="M99.47,166.06h0a.39.39,0,0,1-.48-.27v-.16a.43.43,0,0,1,0-.16,6,6,0,0,1,.11-2.38.4.4,0,0,1,.48-.29.41.41,0,0,1,.29.49,5.3,5.3,0,0,0,0,2.31.4.4,0,0,1-.32.46Z"/><path class="cls-19" d="M101.1,165.43a.4.4,0,0,1-.49-.27h0a4.43,4.43,0,0,1,0-2.6.4.4,0,0,1,.77.25,3.68,3.68,0,0,0,0,2.13.4.4,0,0,1-.27.49Z"/><path class="cls-19" d="M102.55,164.79h-.07a.41.41,0,0,1-.44-.36,7.27,7.27,0,0,1,.13-2.23.4.4,0,1,1,.8.06.36.36,0,0,1,0,.11,6.58,6.58,0,0,0-.11,2A.39.39,0,0,1,102.55,164.79Z"/><path class="cls-20" d="M35.68,136.46s2.54,16.21,13.79,13.21,26.86-10.42,26.86-10.42l14.53,29.12,7.65-7.27s-13.3-31.47-18-32.8c-6.79-1.92-19.93,4.4-19.93,4.4Z"/><path class="cls-10" d="M89.24,169.62c-.08.51,2.79,7.85,2.79,7.85L86,180l-3.06-6.89Z"/><path class="cls-4" d="M86.77,185.77a1.69,1.69,0,0,1-.55-.71c-.83-1.79-.48-5.49-.48-5.49l6-2.83s6.91-.64,9.5.27a1.87,1.87,0,0,1,.8.48C103.38,179.06,88.29,186.81,86.77,185.77Z"/><path class="cls-19" d="M86.77,185.77a1.69,1.69,0,0,1-.55-.71c2.49-.85,10.08-3.68,15-8.06a1.87,1.87,0,0,1,.8.48C103.38,179.06,88.29,186.81,86.77,185.77Z"/><path class="cls-19" d="M91.77,179.43h0a.41.41,0,0,1-.39-.39v-.17a.22.22,0,0,1,0-.16,6.06,6.06,0,0,1,.73-2.26.39.39,0,0,1,.53-.16h0a.4.4,0,0,1,.15.54,5.25,5.25,0,0,0-.66,2.22A.41.41,0,0,1,91.77,179.43Z"/><path class="cls-19" d="M93.51,179.26a.4.4,0,0,1-.4-.39h0a4.49,4.49,0,0,1,.74-2.49.4.4,0,0,1,.55-.11.38.38,0,0,1,.12.54h0a3.71,3.71,0,0,0-.61,2.05.39.39,0,0,1-.39.4Z"/><path class="cls-19" d="M95.08,179H95a.42.42,0,0,1-.32-.47,7.32,7.32,0,0,1,.72-2.11.4.4,0,0,1,.56-.09.41.41,0,0,1,.14.46,6.51,6.51,0,0,0-.63,1.88A.4.4,0,0,1,95.08,179Z"/><path class="cls-18" d="M65,144.19,68.84,148l14.73,31L92,175s-10.16-38.12-16.36-36.84A23,23,0,0,0,65,144.19Z"/><rect class="cls-21" x="39.87" y="128.36" width="42.36" height="1.28"/><rect class="cls-22" x="39.87" y="128.36" width="16.32" height="1.28"/><path class="cls-21" d="M55.06,129a.33.33,0,0,1-.33.33.35.35,0,0,1-.33-.33.34.34,0,0,1,.33-.34.32.32,0,0,1,.33.32Z"/><rect class="cls-21" x="51.25" y="128.83" width="2.44" height="0.41"/><rect class="cls-21" x="47.02" y="128.79" width="2.44" height="0.41"/><rect class="cls-21" x="40.95" y="128.79" width="2.44" height="0.41"/><polygon class="cls-23" points="84.55 128.57 55.9 128.53 62.17 108.16 90.88 108.14 84.55 128.57"/><polygon class="cls-22" points="84.55 128.57 56.67 128.53 62.74 108.82 90.68 108.8 84.55 128.57"/><path class="cls-8" d="M55.9,188.17h0a1,1,0,0,1-1-1V132.46a1,1,0,0,1,1-1h0a1,1,0,0,1,1,1v54.72A1,1,0,0,1,55.9,188.17Z"/><path class="cls-8" d="M25.07,188.17h0a1,1,0,0,1-1.06-1h0V132.46a1,1,0,0,1,1-1.07h.1a1,1,0,0,1,1,1v54.78A1,1,0,0,1,25.07,188.17Z"/><path class="cls-8" d="M95.94,188.17h0a1,1,0,0,1-1-1V132.46a1,1,0,0,1,1-1h0a1,1,0,0,1,1,1h0v54.72A1,1,0,0,1,95.94,188.17Z"/><rect class="cls-24" x="19.47" y="129.63" width="79.86" height="3.5"/><path class="cls-25" d="M297.3,145a30.27,30.27,0,0,0-10.51-10.17c-13.22-7.85-31-8.46-44.12-.14-12.22,7.74-20.15,21.67-33.51,27.24-6.39,2.68-13.85,3.31-19.14,7.8-7.81,6.65-7.58,19-3.73,28.53,7.6,18.81,26.93,31.85,47.14,33.2S274,223,286.56,207.08c11.32-14.32,18.8-36.54,13.94-54.69A28.45,28.45,0,0,0,297.3,145Z"/><path class="cls-3" d="M286.74,230.33c0,2.57-23.09,4.65-51.56,4.65s-51.54-2.08-51.54-4.65,23.08-4.66,51.54-4.66S286.74,227.76,286.74,230.33Z"/><path class="cls-26" d="M271.7,229.18c0,1.79-9.79,3.16-21.86,3.16S228,230.92,228,229.18a.94.94,0,0,1,.32-.6c1.64-1.79,9.68-4.42,19.57-4.76h3.21c10.33.2,18.69,3,20.33,4.79A1,1,0,0,1,271.7,229.18Z"/><path class="cls-27" d="M271.4,228.58c-1.74,1.21-10.75,2.14-21.56,2.14s-19.82-.9-21.55-2.14c1.64-1.79,9.68-4.42,19.57-4.76h3.21C261.4,224,269.76,226.78,271.4,228.58Z"/><rect class="cls-27" x="245.07" y="208.87" width="9.54" height="16.67"/><path class="cls-28" d="M276.42,148c1.68.31,19.29,3.1,15.6,28.07-3.34,22.67-24.48,37.27-48.64,37.82-28.85.64-41.33-16.76-34.72-31.18s27.76-10.75,32.08-17S250,143.07,276.42,148Z"/><path class="cls-29" d="M262.73,150.66s21.22-3.22,23,8.51-5.21,29.24-15.41,31.34-11.36,7-14.13,11.56-19,15.93-36.51,4.35-8-31.64,4-32.32C239,173.28,245,165,262.73,150.66Z"/><path class="cls-30" d="M241.85,165.75s-5.45-5.23-1.29-11l6.76,2.56Z"/><path class="cls-10" d="M262,146.31l-1,10.87s-7.12,2.32-14,4.36c-1.9.57-3.78,1.12-5.47,1.58l-1.36.38a36.26,36.26,0,0,1-4.94,1.08c-4.2.39-4.41-18.8-4.41-18.8l4.64,1.47s.8,7.56,2.48,8.1a6,6,0,0,0,2.6-.65c1.19-.44,2.69-1.09,4.25-1.79,5.05-2.29,11.28-5.38,13-5.83A23.45,23.45,0,0,1,262,146.31Z"/><path class="cls-9" d="M247,161.54c-1.9.57-3.78,1.12-5.47,1.58l-1.36.38a28.21,28.21,0,0,0,.37-8.77c1.19-.44,2.69-1.08,4.25-1.79,1.49,1.09,3.07,2.2,3.26,2.27S247.64,158.58,247,161.54Z"/><path class="cls-31" d="M262,146.31l-1,10.87s-11.31,6.41-19.15,8.57c1.71-3.29.53-9-1.29-11,4.93-1.87,15-7,17.29-7.63A23.49,23.49,0,0,1,262,146.31Z"/><path class="cls-32" d="M243.29,172s-13.23-10.47-18.07-10.11c-5.16.4-7.17,4.24-6.1,7.86s5,10.34,5,10.34l23.16,5.69V174.94Z"/><path class="cls-27" d="M217.23,231.71c0,1-.17,1.74-.55,1.93-1.25.64-20.42-3.81-21.19-5.6-.19-.45.31-.9,1.24-1.38,2.76-1.38,9.25-2.63,11.93-2.69,3.58-.06,8.06,2,8.06,2A34.26,34.26,0,0,1,217.23,231.71Z"/><path class="cls-33" d="M217.23,231.71c0,1-.17,1.74-.55,1.93-1.25.64-20.42-3.81-21.19-5.6-.19-.45.31-.9,1.24-1.38C199.9,228.65,206.45,231.62,217.23,231.71Z"/><path class="cls-10" d="M219.65,217c0,.23-.65,2.2-1.34,4.24-.79,2.34-1.63,4.78-1.63,4.78a17.29,17.29,0,0,1-8.06-2l1-3.43,2-7.05Z"/><path class="cls-9" d="M219.65,217c0,.23-.65,2.2-1.34,4.24-2.46.33-6.27.55-8.67-.67l2-7.05Z"/><path class="cls-34" d="M264.53,187.37s-7.83,11.49-13.94,9.85-20.17-4.95-20.94-4.84-9.56,28.23-9.56,28.23c-4.7,0-9-.34-12-2.05,0,0,8.84-39.93,13.08-42.09S242,178.7,242,178.7a7.18,7.18,0,0,1,1.27-6.69C245.87,168.6,264.53,187.37,264.53,187.37Z"/><path class="cls-32" d="M233.66,199.07s9.13,4.1,12.94-3.34l-7-5.95-7.11,4.86Z"/><path class="cls-10" d="M246.6,197.66a16.85,16.85,0,0,1-6.52,5.09l-2.94-4-3.48-4.77,7.65-4.16c.25.18,2.07,2.93,3.5,5.13C245.8,196.41,246.6,197.66,246.6,197.66Z"/><path class="cls-9" d="M244.81,194.91c-1.37-.22-5.91-.56-7.67,3.8l-3.48-4.77,7.65-4.16C241.56,190,243.38,192.71,244.81,194.91Z"/><path class="cls-27" d="M249.65,204.49c-5.52,4.47-17.73,4.37-19.14,3-.26-.25-.26-.65-.07-1.15h0c.83-2.22,5.37-6.36,8.06-7.56,3.25-1.47,8.16-1.34,8.16-1.34a37.93,37.93,0,0,1,2.13,3.58c.22.39.41.8.58,1.18C249.84,203.3,250,204.19,249.65,204.49Z"/><path class="cls-33" d="M249.65,204.49c-5.52,4.47-17.73,4.37-19.14,3-.26-.25-.26-.65-.07-1.15h0c4.08-2.1,13-6.19,18.31-5.32.21.39.4.8.57,1.18C249.84,203.3,250,204.19,249.65,204.49Z"/><path class="cls-35" d="M249.33,202.22c.47,1.06.7,2,.32,2.27-5.52,4.47-17.73,4.37-19.14,3C230.51,207.51,243.48,201.17,249.33,202.22Z"/><path class="cls-36" d="M219,165.91a13.11,13.11,0,0,0-.28,6.78c.64,2,2.17,4.23,4.4,8.44,4.63,8.77,10.57,17.91,10.57,17.91,3.73-5.52,8.34-6.68,12.94-3.34,0,0-12-24-14.49-28.23s-6-5.65-7.34-5.56a6,6,0,0,0-4.38,1.91A5.16,5.16,0,0,0,219,165.91Z"/><path class="cls-10" d="M282.26,161.21c-1.1,2.56-17.73,26.18-17.73,26.18l-21.24-15.33s11.89-15.63,14.56-20.9,3.71-5,4.88-4.69a45.37,45.37,0,0,0,4.48,1.23,1.67,1.67,0,0,0,1.18-.09h0a29.92,29.92,0,0,0,2.32-4.43l6-5.14,3.23,2.75s-.71,1.42-1.42,3c-.8,1.79-1.61,3.83-1.39,4.29a3.24,3.24,0,0,0,.45.53c1.29,1.26,4.83,3.89,5.5,5.37C283.87,155.65,283.37,158.63,282.26,161.21Z"/><path class="cls-9" d="M280,140.75s-.71,1.42-1.42,3c-2.35,2-6.82,5.21-10.18,3.81h0a29,29,0,0,0,2.32-4.42l6-5.15Z"/><path class="cls-37" d="M282.26,161.21c-1.1,2.56-17.73,26.18-17.73,26.18l-21.24-15.33s11.89-15.63,14.56-20.9,3.71-5,4.88-4.69a45.37,45.37,0,0,0,4.48,1.23c-1.3,1.54-2,4.61-.7,5,2.75.89,7.68-1.29,11.12-4.12,1.29,1.26,4.83,3.89,5.5,5.37C283.87,155.65,283.37,158.63,282.26,161.21Z"/><polygon class="cls-38" points="254.15 147.35 253.35 147.68 235.18 145.73 236.17 136.54 237.06 135.64 255.2 137.59 254.15 147.35"/><rect class="cls-32" x="240.13" y="132.99" width="9.24" height="18.27" transform="translate(77.35 370.33) rotate(-83.88)"/><path class="cls-31" d="M265.61,174.06c-1.79.89-7.76-4.87-2.34-13.21l6.4,3.74Z"/><path class="cls-10" d="M275.22,168c-1.34.66-3.21,1.53-5.27,2.38-1.5.63-3.1,1.25-4.71,1.79l-1.64.55a23.18,23.18,0,0,1-7.73,1.34c-5-.39.1-23.92.1-23.92l5-1.61.06,13.34s.89-.38,2.25-1c1-.46,2.33-1.05,3.68-1.68a73.77,73.77,0,0,0,6.82-3.58c3.52-2.27,6.18-2,6.18-2C287.4,155.62,280.34,165.43,275.22,168Z"/><path class="cls-9" d="M271,159.5l-1,10.84c-1.5.63-3.1,1.25-4.71,1.79l-1.64.55c2.37-4.62-.33-11.84-.33-11.84,1-.46,2.33-1.05,3.68-1.68Z"/><path class="cls-39" d="M275.71,169.2a39.38,39.38,0,0,1-10.1,4.86c1.86-6.14-.72-11.48-2.34-13.21a101.79,101.79,0,0,0,10.5-5.25c3.52-2.26,6.18-1.95,6.18-1.95C287.4,155.62,280.36,165.87,275.71,169.2Z"/><path class="cls-10" d="M261,148.5a31.8,31.8,0,0,0-1.84,3.58,19.45,19.45,0,0,1-3.15-2c-1.2-1-1.27-4.28-1.27-4.28a5,5,0,0,0-1.32-.43c-.4,0-2.34.84-2.69.47s.05-.62.25-.81a.69.69,0,0,0,.13-.11.77.77,0,0,1-.47.09.56.56,0,0,1-.44-.27c-.35-.52,1.47-2.19,2.1-2.36a22.76,22.76,0,0,1,3.09,0,15.1,15.1,0,0,0-2.2-1.2c-.58-.16-3.44.25-3.4-.46s2.78-1,3.67-1.34,2.75.77,3.23,1c-.73-.45-4.9-3-4.14-3.59s5.92,1.57,7,2.58S261,148.5,261,148.5Z"/><path class="cls-9" d="M255.21,144.19c-1.62-.69-3,0-4.25.9a.74.74,0,0,0,.13-.12.77.77,0,0,1-.47.09,4.54,4.54,0,0,1,4.7-1.14.14.14,0,0,1,.09.19A.15.15,0,0,1,255.21,144.19Z"/><path class="cls-10" d="M240.51,138.53c-.32.81-2.79,0-3.3.07s-2.31.8-2.31.8,5.13.35,4.89,1.39a1,1,0,0,1-.33.62.93.93,0,0,1-.67.17.46.46,0,0,1,.26.19.43.43,0,0,1,.06.38c-.11.6-2.74.9-2.74.9a4.37,4.37,0,0,1-.35,3.43c-1,2.16-3.58,1.22-3.58,1.22l-1.6-1.9s-.09-7.39.77-8.43,5.67-2.86,6.7-2.5-3.42,2.36-3.72,2.5a11.13,11.13,0,0,1,3-.38C238.6,137.13,240.67,138.11,240.51,138.53Z"/><path class="cls-9" d="M238.79,141.58a.46.46,0,0,1,.26.19,10.27,10.27,0,0,0-1.57-.38c-.89-.13-1.79-.12-2.73-.2a.06.06,0,0,1,0-.08,0,0,0,0,1,0,0,8.35,8.35,0,0,1,4.72.33A1,1,0,0,1,238.79,141.58Z"/><path class="cls-27" d="M287.35,135.74s1.55,5.14-4.12,4.1l-20.14-4.3s-7.51-1.38-3.37-5.43a8.62,8.62,0,0,1-1.19-1.3c-1.12-1.5-2.12-3.9,1.84-5,0,0-1.85-5.24,4.55-4.65,0,0,.9-6.05,6.37-2.1,0,0,3.2-4.72,6-.11,0,0,3.46-2,5.18.53a6,6,0,0,1,.9,2.68s5.71-.72,3.45,4.89c0,0,4.79,1.52,1.21,5.45C288,130.5,291.62,133.21,287.35,135.74Z"/><path class="cls-40" d="M282.46,117.44a6.6,6.6,0,0,0-5.46.32c-3.25-3.29-5.63.41-5.63.41-4.17-3.24-5.87,2.08-5.87,2.08-5.49,0-3.79,4.48-3.79,4.48a3.88,3.88,0,0,0-3.18,4c-1.12-1.49-2.12-3.89,1.84-5,0,0-1.85-5.24,4.55-4.65,0,0,.9-6,6.37-2.1,0,0,3.2-4.72,6-.11C277.28,116.91,280.74,115,282.46,117.44Z"/><path class="cls-9" d="M266.38,137.93c-.44,1.17-2.22,1.59-4,.89s-2.86-2.14-2.42-3.31,2.22-1.6,4-.94S266.86,136.77,266.38,137.93Z"/><path class="cls-10" d="M283.15,133.09a16.91,16.91,0,0,1-.27,2.24c-1.31,6.8-8.12,11-14.68,10.4-4.86-.43-6.32-6.61-5-13.43a11.55,11.55,0,0,1,.32-1.32,13.81,13.81,0,0,1,4.07-6.76,9.35,9.35,0,0,1,7-2.49c5,.43,7.7,3.58,8.43,7.78A13.41,13.41,0,0,1,283.15,133.09Z"/><path class="cls-9" d="M283.87,131.3l-.72,1.79-1.65,4.15a23.35,23.35,0,0,1-3.14-5.68s-3.3.8-4.21-1.13c0,0-3.22,1.13-4.35-.73,0,0-3.4,2.27-4.53,0,0,0-.38,1.52-1.79,1.29a13.85,13.85,0,0,1,4.07-6.76c3.59.22,13.23.85,13.23.85l2.2,4.47Z"/><path class="cls-27" d="M281.26,137.93a32,32,0,0,1-2-8.06,3.36,3.36,0,0,1-4.48-1.23s-3.63,2-4.92-.41c0,0-3.64,2.52-4.77-.23,0,0-.36,1.7-1.23,1.65s-1.62-4.9,4.33-7.39a12.33,12.33,0,0,1,12.63,1.52c2.33,1.68,3.46,5.88,3.2,8.06-.13,1.2-.12,4.42-.84,5.73C282.62,138.67,281.26,137.93,281.26,137.93Z"/><path class="cls-10" d="M285.66,138.55c.09,1.25-1.37,2.37-3.25,2.5s-3.47-.76-3.58-2,1.36-2.37,3.24-2.5S285.61,137.3,285.66,138.55Z"/><path class="cls-13" d="M272.07,136.64c-.12.48-.43.83-.69.77s-.39-.51-.27-1,.43-.82.69-.76S272.23,136.13,272.07,136.64Z"/><path class="cls-13" d="M265.76,135.89c0,.5-.26.9-.52.9s-.48-.43-.45-.9.26-.89.54-.89S265.79,135.39,265.76,135.89Z"/><path class="cls-16" d="M267.45,135.87a3.49,3.49,0,0,0,0,2.58"/><path class="cls-41" d="M271.94,132.81a3.22,3.22,0,0,1,2.63.94"/><path class="cls-41" d="M264.1,133.12a2.15,2.15,0,0,1,2.35-.5"/><path class="cls-16" d="M267.68,141.07a4.82,4.82,0,0,0,5.21-1.68"/><path class="cls-28" d="M278,196.27c-8.31,14.88-39,16-39,16a10.78,10.78,0,0,0,5.49-3.48c4.81-5,8.67-13.87,9.85-16.67,2.62-6.34,8.06-5.48,16-6.34,6-.67,10.74-6.67,12.69-9.46.59-.89.89-1.42.89-1.42S286.31,181.38,278,196.27Z"/><path class="cls-42" d="M283,176.35c-.83,3.09-4.69,9.23-10.81,10.66-8.68,2-13.54,1.35-15.23,3.87-1.46,2.2-5.79,14.32-12.47,17.91,4.81-5,8.68-13.88,9.85-16.68,2.62-6.34,8.06-5.48,15.95-6.34C276.33,185.14,281.07,179.12,283,176.35Z"/><path class="cls-25" d="M105.41,202.4c6.27-4.14,12.06-9.12,19.4-11.19,21.78-6.16,39.05,15,50.81,29.89,7.09,9,15.82,21,12.54,33.13C180,284.66,131.44,281.36,108.35,276c-16.84-3.9-40.5-12.31-47.46-29.9-4.09-10.4,1.42-21.49,9.5-28.17,8.5-7.07,19.19-7.38,28.71-11.88A49.62,49.62,0,0,0,105.41,202.4Z"/><path class="cls-43" d="M137.22,226.81c-.41-.53-8.3-19.47-8.3-19.47s-3.68.2-6.1,6.72-11.56,35.07-11.56,35.07l8.84,5.5,5.5-2.27Z"/><path class="cls-44" d="M179.59,255.51H134.32s-6.45-13.07-7.42-24.62c-.67-8,0-22.46,2-23.55a57.48,57.48,0,0,1,6.27-2.2c.08,4.68,4.61,12.09,10.74,14,5.55,1.69,15.75-7.37,20.2-11.64,4.12,2.69,8.17,5.37,9,6.77C176.41,216.41,179.59,255.51,179.59,255.51Z"/><path class="cls-10" d="M166.15,207.46c-4.48,4.26-14.65,13.32-20.2,11.64-6.13-1.86-10.66-9.28-10.75-13.95a56.88,56.88,0,0,0,6.94-2.51h0c.26-.14.4-.27.42-.36.14-.9-1.49-8.82-1.49-8.82l13.33-3.09a26.85,26.85,0,0,0,.82,5.63c.68,2.59,1.9,5.42,4.13,7C161.19,204.24,163.67,205.84,166.15,207.46Z"/><path class="cls-9" d="M142.58,202.27c.13-.9-1.49-8.82-1.49-8.82l13.33-3.09a26.75,26.75,0,0,0,.82,5.63C145.15,206.43,142.56,202.4,142.58,202.27Z"/><path class="cls-9" d="M130.74,185.7c-.76,2.07-4,2.78-7.22,1.58s-5.22-3.84-4.48-5.91,4-2.78,7.22-1.58S131.54,183.6,130.74,185.7Z"/><path class="cls-11" d="M132.64,162.76l-7.44,1.53s-4.34,10.65-1.3,17.77C126.15,187.34,132.64,162.76,132.64,162.76Z"/><path class="cls-10" d="M163.23,179.66a25.47,25.47,0,0,1-1.66,5.37c-4.38,10.22-16.63,16.82-25.74,15.06-10.63-2.06-13.63-14.72-11.07-27.91a30.12,30.12,0,0,1,1.88-6.1c4.17-9.74,13.11-15.77,22-14C159.25,154.11,165.79,166.47,163.23,179.66Z"/><path class="cls-45" d="M157.53,159.27s3-4.05,6.26-3.58,6.19,4.4,6.19,4.4-5.07-2.58-7.82-2.22c0,0,4.67,1.6,5.51,6C167.66,164,163.21,159.55,157.53,159.27Z"/><path class="cls-45" d="M162.85,155.74c-3,4.91-8.23,7.21-11.65,5.11s-3.78-7.78-.78-12.71,6.72-8.06,11.64-5.11C167.32,146.21,165.85,150.81,162.85,155.74Z"/><path class="cls-11" d="M164.59,179.7a45.11,45.11,0,0,1-2,5.66c-2,1.49-5.91,1.82-5.91,1.82,0-.37-3.12-17.28-3.2-17.72,0,.56-14.8-4.37-26.86-3.39l-.37-.26a6.28,6.28,0,0,1-1.66-1.86h0c-3.64-6.27,8.33-15.44,21.62-13.6l.7.12c.48.08,1,.17,1.43.28a23.32,23.32,0,0,1,12.22,6.56C165.85,163,166.92,171.17,164.59,179.7Z"/><path class="cls-40" d="M160.58,157.33c-9.06-3.91-28.59-9.57-36,6.64-3.64-6.27,8.34-15.44,21.62-13.6l.7.12c.48.08,1,.17,1.44.28A23.27,23.27,0,0,1,160.58,157.33Z"/><path class="cls-13" d="M143.84,183.14c0,1-.35,1.74-.78,1.74s-.8-.77-.8-1.74.36-1.79.8-1.79S143.84,182.17,143.84,183.14Z"/><path class="cls-13" d="M129.31,181.8c0,1-.35,1.8-.79,1.8s-.79-.78-.79-1.8.35-1.79.79-1.79S129.31,180.82,129.31,181.8Z"/><path class="cls-16" d="M133.64,182a9.33,9.33,0,0,0-.38,5.28"/><path class="cls-46" d="M142.88,173.74a6,6,0,0,1,4.7,1.28"/><path class="cls-46" d="M127.16,170.4a5.5,5.5,0,0,1,4.57,1.12"/><path class="cls-16" d="M136.17,192.09a9.67,9.67,0,0,0,7.43-1.79"/><path class="cls-10" d="M167.58,186c.42,2.18-2,4.48-5.37,5.11s-6.45-.59-6.87-2.75,2-4.48,5.37-5.11S167.16,183.86,167.58,186Z"/><path class="cls-47" d="M168.55,211.62a9.5,9.5,0,0,1,7.16,3.1,124.47,124.47,0,0,1,10.49,13.53c9.45,13.59,12.85,20.53,9.85,24.36s-37.52,2.9-37.52,2.9l-3.07-9.23,17.37-3.5s-9.27-14-10.43-19.81C161.43,218.11,162.29,211.78,168.55,211.62Z"/><path class="cls-10" d="M158.81,255.42s-2.59,1.18-7.83.58-6.48-4.11-6.48-4.11-3.71.89-4.76-.43a1.57,1.57,0,0,1-.21-1.6,2.09,2.09,0,0,1,.16-.29,1.72,1.72,0,0,1-.66.22,2.15,2.15,0,0,1-1.69-.56c-1.18-1-.11-2.69,0-2.82h0a1.87,1.87,0,0,1-.71.14,1.77,1.77,0,0,1-1.63-1.16c-.85-1.7,3.58-4,3.94-4.21-.43.12-7.47,2.2-8.19,2.3s-2.2.05-1.27-1.66,8.44-5.69,14.54-4.36,11.44,8.82,11.44,8.82Z"/><path class="cls-9" d="M137.31,246.41h0a17.94,17.94,0,0,1,7.88-5,.24.24,0,0,0-.12-.45,14.18,14.18,0,0,0-8.47,5.66Z"/><path class="cls-9" d="M146.67,244.65a16.32,16.32,0,0,0-7.16,5.21l.16-.29a1.67,1.67,0,0,1-.65.22,11.89,11.89,0,0,1,7.46-5.55C146.74,244.19,146.92,244.53,146.67,244.65Z"/><rect class="cls-48" x="47.36" y="254.63" width="150.33" height="5.78"/><rect class="cls-49" x="56.52" y="250.09" width="90.95" height="4.55"/><rect class="cls-50" x="118.56" y="250.09" width="28.91" height="4.55"/><rect class="cls-49" x="124.67" y="251.44" width="7.22" height="1.84"/><rect class="cls-49" x="137.22" y="251.44" width="7.22" height="1.84"/><path class="cls-49" d="M123.43,252.36a.9.9,0,1,1-1-.81h.08a.85.85,0,0,1,.9.8Z"/><polygon class="cls-4" points="118.56 249.55 116.08 251.46 49.93 251.46 40.79 213.03 43.19 210.46 110.97 210.46 118.56 249.55"/><polygon class="cls-50" points="116.08 251.46 49.93 251.46 40.79 213.03 108.21 213.03 116.08 251.46"/><path class="cls-4" d="M90.45,231.68c0,2.14-4.68,3.87-10.44,3.87s-10.43-1.73-10.43-3.87,4.67-3.86,10.43-3.86S90.45,229.55,90.45,231.68Z"/><path class="cls-2" d="M199.74,0a57,57,0,0,0-21.66,4.84C167.93,9.33,162.2,19.6,155.81,28.14,150.43,35.38,144,42.47,135.43,45.4c-8.12,2.77-17.18,1.43-25.32,4.1C95,54.47,87.27,72.89,90.79,88.36s15.9,27.7,29.93,35.11c29.19,15.43,66.43,12.39,94.55-4.91C230.85,109,244.1,95,250.76,78,263.6,45.18,246.87,7.06,210.47.77A55.93,55.93,0,0,0,199.74,0Z"/><rect class="cls-51" x="99.44" y="25.77" width="150.5" height="96.08"/><rect class="cls-52" x="99.44" y="25.77" width="150.5" height="8.14"/><path class="cls-51" d="M226.61,29.84a1.79,1.79,0,1,1-1.79-1.79A1.79,1.79,0,0,1,226.61,29.84Z"/><path class="cls-51" d="M235.37,29.84a1.79,1.79,0,1,1-1.79-1.79A1.79,1.79,0,0,1,235.37,29.84Z"/><path class="cls-51" d="M244.08,29.84a1.79,1.79,0,1,1-1.79-1.79A1.79,1.79,0,0,1,244.08,29.84Z"/><g class="cls-53"><path class="cls-54" d="M211.43,68.9c-.37,2.37-4.11,3-7.08,6.45s3.75,4.11,4.17,6.76-.08,6.27-4.63,7.94S160,97.76,156,91.23s.89-11.14,2.68-12.59-6.73-2.34-6.7-7.12c0-3.86,8.05-4.47,6.86-6.67s-7.36-1.57-6.86-4.62,10.19-4.47,10.36-6.36c.08-1-.55-4.29-.9-8.39h0a44.34,44.34,0,0,1,1.85-13.8s4.27-4,8.77-5.15A58.78,58.78,0,0,1,184.16,25l13.52,9L199.1,30a.06.06,0,0,1,0,.06v.09c.09.4.34,1.54.59,3,.66,3.89,1.46,10.34.13,13.58-2,4.84,5.55,5.69,7.65,7.41s.29,4.72-3.37,7S212.23,64,211.43,68.9Z"/><polygon class="cls-55" points="200.62 88.32 191.03 76.66 167.09 74.93 158.66 121.85 197.14 122.15 200.62 88.32"/><path class="cls-10" d="M192.48,77.75S177.68,96.16,175,96.16s-7.93-21.23-7.93-21.23a7.42,7.42,0,0,0,4.68-2.38,8.12,8.12,0,0,0,1.39-3.43,52.73,52.73,0,0,0,.63-11.28l15.13-2.68c-.28,0-2.46,6.45-2.17,12.53C186.93,72,188.34,76.14,192.48,77.75Z"/><path class="cls-9" d="M186.75,67.74c-4.07,1.16-9.44,2.22-13.59,1.35a52.64,52.64,0,0,0,.63-11.27l15.13-2.69C188.64,55.16,186.46,61.62,186.75,67.74Z"/><path class="cls-9" d="M203.65,47.42c.33,1.73-1.64,3.58-4.41,4.07s-5.28-.43-5.6-2.22,1.65-3.58,4.42-4.08S203.33,45.69,203.65,47.42Z"/><path class="cls-9" d="M168.74,49.27C168.45,51,166,52,163.19,51.56s-4.8-2.25-4.48-4,2.78-2.77,5.56-2.3S169,47.48,168.74,49.27Z"/><path class="cls-10" d="M198.41,45.31c-.67,10.88-8.25,20.31-18.24,20.31-9.49,0-15.82-11.49-15.15-22.38S173.71,24,182.93,24.57,199.08,34.44,198.41,45.31Z"/><path class="cls-9" d="M197.74,44.28,193.61,40s-11.65,1.15-17.2-6.81c0,0-1.42,5.38-9.36,9.41L165,45.51s-3.23-16.61,8.14-19S197,28.65,198.61,36,197.74,44.28,197.74,44.28Z"/><path class="cls-54" d="M198.19,47.6l-2.54-8.88s-13.69.22-19.16-9.64c0,0-5,10.3-10.08,12.71L165,48.38c-.32-.13-1.49-3.12-2-7.17A27.62,27.62,0,0,1,163,33h0c.89-5.21,3.83-10.24,11-12.24,8.11-2.3,16.55-1.73,21.7,2.68A13.27,13.27,0,0,1,199.86,30a.06.06,0,0,1,0,.06.07.07,0,0,1,0,.09,16,16,0,0,1,.6,3.05C200.9,37.05,200.25,41.83,198.19,47.6Z"/><path class="cls-40" d="M195.68,23.46c-5.73-1-15.35-1.61-22.87,3.06-4.46,2.74-8.12,7.3-9.83,14.69a36,36,0,0,0-.74,4.25c-.32-3.93-.35-8.56.8-12.42h0c.9-5.21,3.84-10.24,11-12.24C182.09,18.49,190.53,19.06,195.68,23.46Z"/><path class="cls-13" d="M189,47.82c0,.9-.38,1.68-.84,1.68s-.85-.75-.85-1.68.38-1.69.85-1.69S189,46.88,189,47.82Z"/><path class="cls-13" d="M174.36,46.77c0,.9-.37,1.69-.84,1.69s-.9-.76-.9-1.69.39-1.69.9-1.69S174.36,45.84,174.36,46.77Z"/><path class="cls-14" d="M186.09,54.47c-.23.09-8.36,1.17-8.36,1.17s1.08,4.32,4.48,3.93S186.09,54.47,186.09,54.47Z"/><path class="cls-16" d="M179.76,46.73a35.46,35.46,0,0,0,.11,5.55"/><path class="cls-56" d="M187.16,40.8a3.32,3.32,0,0,1,3.58.73"/><path class="cls-56" d="M170,41.07a3.81,3.81,0,0,1,4.32-.59"/><path class="cls-57" d="M168.76,74.18s-5,28.82-6.68,47.63l-14.9.28-14.67.29s15.12-39.17,19.92-43.11a12.63,12.63,0,0,1,1.59-1C159.4,75.24,168.76,74.18,168.76,74.18Z"/><path class="cls-58" d="M152.45,79.31A11.08,11.08,0,0,1,154,78.25a54.37,54.37,0,0,0-3.36,12.47c-.74,5.9-2.57,23.22-3.44,31.41l-14.68.29S147.65,83.25,152.45,79.31Z"/><path class="cls-59" d="M124.89,77.93S118,65.84,110.3,63l1.79,7.9Z"/><path class="cls-60" d="M124.89,77.93s-7.47-11.74-16.4-12.54L104.62,70l16.95,13.43,2.36-1.52Z"/><polygon class="cls-60" points="146.06 65.62 148.5 73.42 147.28 76.25 146.5 71.69 146.06 65.62"/><path class="cls-61" d="M123.93,81.88l1-3.95s8.6-10.62,21.16-12.29l.69,6.81Z"/><path class="cls-6" d="M123.93,81.88s-9.58-12.68-20.65-12.46l12.07,32.69s7.37.44,16.92,9.91Z"/><path class="cls-62" d="M132.27,112c-.67.63-8.34-30.13-8.34-30.13S132,73,148.5,70.45l6.64,33.19S139.59,105,132.27,112Z"/><path class="cls-63" d="M130.09,83.4c4.25-4,8.95-6.49,14.52-6.74l1.95,8.81c-5.38.63-9.75,3.58-13.7,6.88Z"/><path class="cls-64" d="M127,123.65s-2.18-12.85,10.66-10.23l.58,4.73Z"/><path class="cls-10" d="M132.9,123.52l-3.71-5.92-.67-1.07c-2.41-3-13.24-17.73-12.12-20.37s7.53,7.41,7.53,7.41-4-11.08-2.37-12,7.11,12.93,7.11,12.93-1.21-11,0-11.35,2,2,2,2,.58-1.15,1.64-1,3.07,11,3.07,11a12,12,0,0,1,2.25,6.85v1.33h0s2.09,5.55,2.34,5.8S132.9,123.52,132.9,123.52Z"/><path class="cls-9" d="M132.9,123.52l-3.71-5.92c3.58-.09,6.71-3.34,8.4-5.51v1.33h0s2.09,5.55,2.34,5.8S132.9,123.52,132.9,123.52Z"/><path class="cls-9" d="M130.8,94.94a50.93,50.93,0,0,0,1.39,10.14c.07.29-.38.42-.45.12a37.42,37.42,0,0,1-1.32-10.53Z"/><path class="cls-57" d="M137.63,113.11A26.14,26.14,0,0,1,127,123.65l5.38,5.37,13.75-6.84Z"/><path class="cls-57" d="M222.08,121.85H205.65l-18.49.67s.15-36.15,3.84-45.86c0,0,9.36,4.47,14.74,8.57a12.14,12.14,0,0,1,3.45,3.51C211.42,93.15,222.08,121.85,222.08,121.85Z"/><path class="cls-58" d="M222.08,121.85h-19c-1.41-11-1.2-32,.57-35.1a2.64,2.64,0,0,1,2.08-1.52,12.11,12.11,0,0,1,3.44,3.51C211.42,93.15,222.08,121.85,222.08,121.85Z"/><path class="cls-64" d="M230.73,123.81s1.43-7-2-9.28-4.9,4.09-4.9,4.09l3,4.4Z"/><path class="cls-65" d="M225.41,109.08c.12-.19,1.34-7.27,4.91-9.85s8.1-8.85,9-8.6-4.23,16.28-4.23,16.28Z"/><path class="cls-54" d="M228.47,106.05s35.14-54.44,36.26-54.16-34,55.45-34,55.45Z"/><path class="cls-10" d="M246.35,103.74c-.6,3.41-16.32,14.16-16.32,14.16l-.29.33-4,4.48-4.64-8.66,2.61-3.26-.1-.11a7.88,7.88,0,0,1,.76-1.88c2.5-4.34,8.45-4.09,8.45-4.09s-2-7.92-.94-9.11c.7-.79,1.79.23,1.91.33-.08-.14-1.24-1.79.25-2.69s5,8.15,5.24,8.73c-.15-.61-2.39-10.65-.86-12.92s4,10.15,4,10.15.61-13.29,2.2-14S247,100.31,246.35,103.74Z"/><path class="cls-65" d="M229.74,118.22l-4,4.48L221.1,114l2.61-3.26-.1-.11a7.65,7.65,0,0,1,.76-1.87C225,111.8,226.51,116.23,229.74,118.22Z"/><path class="cls-65" d="M233.72,95.84h0c2,2.81,2.95,6.08,3.89,9.4a.27.27,0,0,1-.24.28.25.25,0,0,1-.25-.15,31.19,31.19,0,0,0-4-9.94Z"/><path class="cls-57" d="M210,121.31c.43,0,14.08-11.81,14.08-11.81s1.1,12.92,6.69,14.33l-5.95,4.48Z"/></g></g></g></g></g></svg>