<svg xmlns="http://www.w3.org/2000/svg" viewBox="0 0 61.2 41.85"><defs><style>.cls-1{fill:#00afb9;}.cls-2,.cls-3{font-size:10px;}.cls-2{fill:#fff;font-family:Poppins-Regular, Poppins;}.cls-3{fill:#4361ee;font-family:Poppins-SemiBold, Poppins;font-weight:600;}.cls-10,.cls-11,.cls-12,.cls-13,.cls-4,.cls-5,.cls-6,.cls-7,.cls-8{fill:none;}.cls-10,.cls-13,.cls-4,.cls-5,.cls-7{stroke:#4361ee;}.cls-10,.cls-11,.cls-12,.cls-13,.cls-14,.cls-4,.cls-5,.cls-6,.cls-7,.cls-8{stroke-miterlimit:10;}.cls-4{stroke-width:0.42px;}.cls-5{stroke-width:0.42px;}.cls-14,.cls-6{stroke:#2d00f7;}.cls-10,.cls-14,.cls-6,.cls-8{stroke-width:0.53px;}.cls-7{stroke-width:0.6px;}.cls-11,.cls-12,.cls-8{stroke:#00afb9;}.cls-9{fill:#2d00f7;}.cls-11{stroke-width:0.56px;}.cls-12{stroke-width:0.57px;}.cls-13{stroke-width:0.53px;}</style></defs><g id="Layer_2" data-name="Layer 2"><g id="Layer_2-2" data-name="Layer 2"><path class="cls-1" d="M61.2,28.81v7.3a2.7,2.7,0,0,1-2.54,2.83H31.21a2.7,2.7,0,0,1-2.54-2.83v-7.3A2.7,2.7,0,0,1,31.21,26H58.66A2.7,2.7,0,0,1,61.2,28.81Z"/><text class="cls-2" transform="translate(31.38 35.41) scale(1.12 1)">login</text><text class="cls-3" transform="translate(0 35.93)">philo-</text><rect class="cls-4" x="40.09" y="4.76" width="8.8" height="3.27" rx="0.15"/><polygon class="cls-5" points="40.01 4.57 48.91 4.5 51.23 3.09 44.5 0.23 37.81 3.01 40.01 4.57"/><path class="cls-5" d="M38.89,3.64l-1.08,2-1.16.47,1.5.94-.34-1.42"/><polygon class="cls-6" points="43.4 17.16 44.57 16 45.74 17.1 44.63 18.83 43.4 17.16"/><ellipse class="cls-7" cx="40.48" cy="14.2" rx="3.2" ry="3.18"/><ellipse class="cls-8" cx="40.08" cy="14.34" rx="1.86" ry="1.84"/><path class="cls-9" d="M39.94,13.63a.69.69,0,0,1,.77.12.64.64,0,0,1,.2.41.45.45,0,0,1-.21.39,1,1,0,0,0-.35-.42A2.13,2.13,0,0,1,39.94,13.63Z"/><ellipse class="cls-8" cx="48.46" cy="14.34" rx="1.86" ry="1.84"/><ellipse class="cls-7" cx="48.73" cy="14.51" rx="3.2" ry="3.18"/><path class="cls-9" d="M48.38,13.57a.64.64,0,0,1,.4-.06.64.64,0,0,1,.57.59.41.41,0,0,1-.21.38,1,1,0,0,0-.35-.41A2.13,2.13,0,0,1,48.38,13.57Z"/><path class="cls-10" d="M37.46,11.3l-.24-3.64,1.47,1.58,4-.09,1.74,1.35,1.75-1.33H51L51.88,8l-.18,3.24"/><path class="cls-11" d="M38.46,22.6c0-2.27,2.24-4.1,5-4.1"/><path class="cls-12" d="M50.84,22.74c0-2.34-2.24-4.23-5-4.23"/><path class="cls-13" d="M37.55,18a7.55,7.55,0,0,0,7.24,8.54,7.54,7.54,0,0,0,7-8.51"/><line class="cls-14" x1="37.49" y1="25.3" x2="38.07" y2="26.9"/><line class="cls-14" x1="38.4" y1="25.3" x2="38.97" y2="26.9"/><line class="cls-14" x1="39.35" y1="25.3" x2="39.92" y2="26.9"/><line class="cls-6" x1="51.65" y1="25.49" x2="51.08" y2="27.09"/><line class="cls-6" x1="50.74" y1="25.49" x2="50.17" y2="27.09"/><line class="cls-6" x1="49.79" y1="25.49" x2="49.22" y2="27.09"/></g></g></svg>