<svg xmlns="http://www.w3.org/2000/svg" xmlns:xlink="http://www.w3.org/1999/xlink" viewBox="0 0 253.41 253.41"><defs><style>.cls-1{fill:#4a8cff;}.cls-2{fill:#fff;}</style><symbol id="A" data-name="A" viewBox="0 0 57.73 57.73"><path class="cls-1" d="M0,28.86A28.81,28.81,0,0,0,28.74,57.73h.12A28.82,28.82,0,0,0,57.73,29v-.13A28.81,28.81,0,0,0,29,0h-.13A28.8,28.8,0,0,0,0,28.74Z"/><path class="cls-2" d="M37.65,32.61l8.15,6c.72.58,1.26.44,1.26-.63V19.77c0-1.21-.68-1.07-1.26-.63l-8.15,6ZM10,37.9V24.34a5.55,5.55,0,0,1,5.57-5.52H35.38a1,1,0,0,1,1,1V33.38a5.55,5.55,0,0,1-5.57,5.52H11.05A1,1,0,0,1,10,37.9Z"/></symbol></defs><g id="Layer_2" data-name="Layer 2"><g id="Layer_1-2" data-name="Layer 1"><use width="57.73" height="57.73" transform="matrix(4.39, 0, 0, -4.39, 0, 253.41)" xlink:href="#A"/></g></g></svg>